M48
; DRILL file KiCad 10.0.3 date 2026-08-03T16:25:21
; FORMAT={-:-/ absolute / inch / decimal}
; #@! TF.CreationDate,2026-08-03T16:25:21+09:00
; #@! TF.GenerationSoftware,Kicad,Pcbnew,10.0.3
; #@! TF.FileFunction,Plated,1,2,PTH
FMAT,2
INCH
; #@! TA.AperFunction,Plated,PTH,ViaDrill
T1C0.0118
%
G90
G05
T1
X1.0428Y-0.9695
X1.1178Y-1.0768
X1.241Y-0.8622
X1.3034Y-1.0295
X1.3153Y-1.0843
X1.324Y-0.8622
X1.3531Y-0.8109
X1.3882Y-0.8622
X1.4473Y-1.0768
X1.4473Y-0.7835
X1.4473Y-0.8622
X1.5303Y-0.8622
X1.5578Y-0.8109
X1.5945Y-0.8622
X1.6535Y-1.0768
X1.6535Y-0.7835
X1.6535Y-0.8622
X1.7365Y-0.8622
X1.7388Y-0.8109
X1.798Y-0.7794
X1.8007Y-0.8622
X1.8598Y-0.8622
X1.8651Y-0.8032
X1.9243Y-0.8295
X1.9343Y-0.9221
M30
