%TF.GenerationSoftware,KiCad,Pcbnew,10.0.3*%
%TF.CreationDate,2026-08-03T16:25:21+09:00*%
%TF.ProjectId,led_module_2,6c65645f-6d6f-4647-956c-655f322e6b69,rev?*%
%TF.SameCoordinates,Original*%
%TF.FileFunction,Copper,L2,Bot*%
%TF.FilePolarity,Positive*%
%FSLAX46Y46*%
G04 Gerber Fmt 4.6, Leading zero omitted, Abs format (unit mm)*
G04 Created by KiCad (PCBNEW 10.0.3) date 2026-08-03 16:25:21*
%MOMM*%
%LPD*%
G01*
G04 APERTURE LIST*
G04 Aperture macros list*
%AMRoundRect*
0 Rectangle with rounded corners*
0 $1 Rounding radius*
0 $2 $3 $4 $5 $6 $7 $8 $9 X,Y pos of 4 corners*
0 Add a 4 corners polygon primitive as box body*
4,1,4,$2,$3,$4,$5,$6,$7,$8,$9,$2,$3,0*
0 Add four circle primitives for the rounded corners*
1,1,$1+$1,$2,$3*
1,1,$1+$1,$4,$5*
1,1,$1+$1,$6,$7*
1,1,$1+$1,$8,$9*
0 Add four rect primitives between the rounded corners*
20,1,$1+$1,$2,$3,$4,$5,0*
20,1,$1+$1,$4,$5,$6,$7,0*
20,1,$1+$1,$6,$7,$8,$9,0*
20,1,$1+$1,$8,$9,$2,$3,0*%
G04 Aperture macros list end*
%TA.AperFunction,SMDPad,CuDef*%
%ADD10RoundRect,0.140000X0.170000X-0.140000X0.170000X0.140000X-0.170000X0.140000X-0.170000X-0.140000X0*%
%TD*%
%TA.AperFunction,SMDPad,CuDef*%
%ADD11R,1.300000X0.300000*%
%TD*%
%TA.AperFunction,SMDPad,CuDef*%
%ADD12R,2.200000X1.800000*%
%TD*%
%TA.AperFunction,SMDPad,CuDef*%
%ADD13RoundRect,0.140000X0.140000X0.170000X-0.140000X0.170000X-0.140000X-0.170000X0.140000X-0.170000X0*%
%TD*%
%TA.AperFunction,SMDPad,CuDef*%
%ADD14RoundRect,0.205000X-0.205000X0.470000X-0.205000X-0.470000X0.205000X-0.470000X0.205000X0.470000X0*%
%TD*%
%TA.AperFunction,SMDPad,CuDef*%
%ADD15RoundRect,0.135000X0.135000X0.185000X-0.135000X0.185000X-0.135000X-0.185000X0.135000X-0.185000X0*%
%TD*%
%TA.AperFunction,ViaPad*%
%ADD16C,0.600000*%
%TD*%
%TA.AperFunction,Conductor*%
%ADD17C,0.200000*%
%TD*%
G04 APERTURE END LIST*
D10*
%TO.P,C2,1*%
%TO.N,3V3*%
X33630001Y-22860001D03*
%TO.P,C2,2*%
%TO.N,GND*%
X33630001Y-21900001D03*
%TD*%
%TO.P,C1,1*%
%TO.N,3V3*%
X28391250Y-27349996D03*
%TO.P,C1,2*%
%TO.N,GND*%
X28391250Y-26389996D03*
%TD*%
D11*
%TO.P,J1,1,Pin_1_1*%
%TO.N,GND*%
X50830000Y-22422498D03*
%TO.P,J1,2,Pin_2_2*%
%TO.N,DATA*%
X50829999Y-22922497D03*
%TO.P,J1,3,Pin_3_3*%
%TO.N,3V3*%
X50829998Y-23422499D03*
%TO.P,J1,4,Pin_4_4*%
%TO.N,unconnected-(J1-Pin_4-Pad4)*%
X50829999Y-23922496D03*
%TO.P,J1,5,Pin_5_5*%
%TO.N,unconnected-(J1-Pin_5-Pad5)*%
X50829999Y-24422500D03*
%TO.P,J1,6,Pin_6_6*%
%TO.N,unconnected-(J1-Pin_6-Pad6)*%
X50830000Y-24922498D03*
D12*
%TO.P,J1,MP*%
%TO.N,N/C*%
X54080002Y-20522498D03*
X54080002Y-26822498D03*
%TD*%
D13*
%TO.P,C5,1*%
%TO.N,GND*%
X48332500Y-20401249D03*
%TO.P,C5,2*%
%TO.N,3V3*%
X47372500Y-20401249D03*
%TD*%
D14*
%TO.P,D2,1,VSS_1*%
%TO.N,GND*%
X36761250Y-21900000D03*
%TO.P,D2,2,DIN_2*%
%TO.N,Net-(D1-DOUT)*%
X35261252Y-21900000D03*
%TO.P,D2,3,VDD_3*%
%TO.N,3V3*%
X35261250Y-27349996D03*
%TO.P,D2,4,DOUT_4*%
%TO.N,Net-(D2-DOUT)*%
X36761248Y-27349996D03*
%TD*%
D10*
%TO.P,C3,1*%
%TO.N,3V3*%
X38868751Y-22860000D03*
%TO.P,C3,2*%
%TO.N,GND*%
X38868751Y-21900000D03*
%TD*%
D14*
%TO.P,D1,1,VSS_1*%
%TO.N,GND*%
X31522500Y-21900000D03*
%TO.P,D1,2,DIN_2*%
%TO.N,Net-(D1-DIN)*%
X30022502Y-21900000D03*
%TO.P,D1,3,VDD_3*%
%TO.N,3V3*%
X30022500Y-27349996D03*
%TO.P,D1,4,DOUT_4*%
%TO.N,Net-(D1-DOUT)*%
X31522498Y-27349996D03*
%TD*%
D10*
%TO.P,C4,1*%
%TO.N,3V3*%
X44107500Y-22859999D03*
%TO.P,C4,2*%
%TO.N,GND*%
X44107500Y-21899999D03*
%TD*%
D15*
%TO.P,R1,1*%
%TO.N,DATA*%
X32711249Y-20223750D03*
%TO.P,R1,2*%
%TO.N,Net-(D1-DIN)*%
X31691251Y-20223746D03*
%TD*%
D14*
%TO.P,D3,1,VSS_1*%
%TO.N,GND*%
X42000000Y-21900000D03*
%TO.P,D3,2,DIN_2*%
%TO.N,Net-(D2-DOUT)*%
X40500002Y-21900000D03*
%TO.P,D3,3,VDD_3*%
%TO.N,3V3*%
X40500000Y-27349996D03*
%TO.P,D3,4,DOUT_4*%
%TO.N,Net-(D3-DOUT)*%
X41999998Y-27349996D03*
%TD*%
%TO.P,D4,1,VSS_1*%
%TO.N,GND*%
X47238750Y-21900000D03*
%TO.P,D4,2,DIN_2*%
%TO.N,Net-(D3-DOUT)*%
X45738752Y-21900000D03*
%TO.P,D4,3,VDD_3*%
%TO.N,3V3*%
X45738750Y-27349996D03*
%TO.P,D4,4,DOUT_4*%
%TO.N,unconnected-(D4-DOUT-Pad4)*%
X47238748Y-27349996D03*
%TD*%
D16*
%TO.N,GND*%
X33630001Y-21900001D03*
X42000000Y-19900000D03*
X36761250Y-19900000D03*
%TO.N,3V3*%
X44165110Y-20597498D03*
X28391250Y-27349996D03*
X34368749Y-20597498D03*
X33107500Y-26148746D03*
X49130001Y-23422499D03*
X47372500Y-20401249D03*
X39568749Y-20597498D03*
%TO.N,GND*%
X31522500Y-21900000D03*
X44107500Y-21899999D03*
X38868751Y-21900000D03*
X26486250Y-24624998D03*
X47238750Y-21900000D03*
X36761250Y-21900000D03*
X42000000Y-21900000D03*
%TO.N,DATA*%
X48877161Y-21069363D03*
X45668749Y-19797498D03*
%TO.N,Net-(D1-DOUT)*%
X33407500Y-27541246D03*
X35261252Y-21900000D03*
%TO.N,Net-(D2-DOUT)*%
X40500002Y-21900000D03*
X36761248Y-27349996D03*
%TO.N,Net-(D3-DOUT)*%
X41999998Y-27349996D03*
X45738752Y-21900000D03*
%TD*%
%TO.N,DATA*%
D17*
X34213061Y-19100000D02*
X33089311Y-20223750D01*
X44971251Y-19100000D02*
X34213061Y-19100000D01*
X45668749Y-19797498D02*
X44971251Y-19100000D01*
X33089311Y-20223750D02*
X32711249Y-20223750D01*
%TO.N,3V3*%
X45738750Y-27349996D02*
X44786250Y-27349996D01*
X34308750Y-27349996D02*
X33107500Y-26148746D01*
X34368749Y-20597498D02*
X34368749Y-22121253D01*
X33107500Y-26148746D02*
X33107500Y-23382502D01*
X44107500Y-26671246D02*
X44107500Y-22859999D01*
X35261250Y-27349996D02*
X34308750Y-27349996D01*
X44786250Y-27349996D02*
X44107500Y-26671246D01*
X44761471Y-20797498D02*
X46568749Y-20797498D01*
X43368749Y-21393859D02*
X43368749Y-22121248D01*
X43368749Y-22121248D02*
X44107500Y-22859999D01*
X39568749Y-22160002D02*
X38868751Y-22860000D01*
X46568749Y-20797498D02*
X46964998Y-20401249D01*
X40500000Y-27349996D02*
X39547500Y-27349996D01*
X39547500Y-27349996D02*
X38868751Y-26671247D01*
X34368749Y-22121253D02*
X33630001Y-22860001D01*
X33107500Y-23382502D02*
X33630001Y-22860001D01*
X44165110Y-20597498D02*
X44561471Y-20597498D01*
X38868751Y-26671247D02*
X38868751Y-22860000D01*
X30022500Y-27349996D02*
X28391250Y-27349996D01*
X50829998Y-23422499D02*
X49130001Y-23422499D01*
X44165110Y-20597498D02*
X43368749Y-21393859D01*
X46964998Y-20401249D02*
X47372500Y-20401249D01*
X39568749Y-20597498D02*
X39568749Y-22160002D01*
X44561471Y-20597498D02*
X44761471Y-20797498D01*
%TO.N,GND*%
X50830000Y-22422498D02*
X52430000Y-22422498D01*
X48332500Y-20401249D02*
X48332500Y-20806250D01*
X48332500Y-20401249D02*
X49851253Y-20401249D01*
X49851253Y-20401249D02*
X50830000Y-21379996D01*
X50830000Y-21379996D02*
X50830000Y-22422498D01*
X48332500Y-20806250D02*
X47238750Y-21900000D01*
%TO.N,DATA*%
X49329999Y-22422496D02*
X49829999Y-22922497D01*
X48877161Y-21069363D02*
X49220613Y-21069363D01*
X49220613Y-21069363D02*
X49329999Y-21178749D01*
X49329999Y-21178749D02*
X49329999Y-22422496D01*
X49829999Y-22922497D02*
X50829999Y-22922497D01*
%TO.N,Net-(D1-DOUT)*%
X31713748Y-27541246D02*
X31522498Y-27349996D01*
X33407500Y-27541246D02*
X31713748Y-27541246D01*
%TO.N,Net-(D1-DIN)*%
X31691251Y-20231251D02*
X30022502Y-21900000D01*
X31691251Y-20223746D02*
X31691251Y-20231251D01*
%TD*%
%TA.AperFunction,Conductor*%
%TO.N,GND*%
G36*
X29031336Y-21331629D02*
G01*
X29087269Y-21373501D01*
X29111686Y-21438965D01*
X29112002Y-21447811D01*
X29112002Y-22401660D01*
X29092317Y-22468699D01*
X29057497Y-22504356D01*
X29015469Y-22532796D01*
X28880296Y-22667970D01*
X28880293Y-22667973D01*
X28773160Y-22826294D01*
X28697945Y-23002025D01*
X28697943Y-23002033D01*
X28658029Y-23185761D01*
X28657360Y-23188839D01*
X28652880Y-23379949D01*
X28684667Y-23568451D01*
X28751569Y-23747524D01*
X28753840Y-23751245D01*
X28772000Y-23815849D01*
X28772000Y-25434146D01*
X28770016Y-25443631D01*
X28771007Y-25449808D01*
X28765356Y-25465919D01*
X28761612Y-25483829D01*
X28758236Y-25491547D01*
X28751569Y-25502472D01*
X28740480Y-25532150D01*
X28739119Y-25535265D01*
X28718756Y-25559546D01*
X28699760Y-25584892D01*
X28696475Y-25586114D01*
X28694223Y-25588801D01*
X28663969Y-25598217D01*
X28649454Y-25603621D01*
X28641250Y-25611206D01*
X28641250Y-26265996D01*
X28621565Y-26333035D01*
X28568761Y-26378790D01*
X28517250Y-26389996D01*
X28391250Y-26389996D01*
X28391250Y-26432049D01*
X28382307Y-26462504D01*
X28375005Y-26493408D01*
X28372532Y-26495794D01*
X28371565Y-26499088D01*
X28347582Y-26519869D01*
X28324726Y-26541924D01*
X28320346Y-26543468D01*
X28318761Y-26544843D01*
X28291442Y-26553666D01*
X28244409Y-26563021D01*
X28223841Y-26567113D01*
X28199651Y-26569496D01*
X28156552Y-26569496D01*
X28120258Y-26572352D01*
X28120252Y-26572353D01*
X27964860Y-26617499D01*
X27964855Y-26617502D01*
X27956016Y-26622728D01*
X27892898Y-26639996D01*
X27586746Y-26639996D01*
X27629218Y-26786190D01*
X27641161Y-26806385D01*
X27658342Y-26874109D01*
X27641161Y-26932624D01*
X27628756Y-26953600D01*
X27628754Y-26953605D01*
X27583607Y-27108998D01*
X27583607Y-27109001D01*
X27580750Y-27145298D01*
X27580750Y-27554693D01*
X27583606Y-27590987D01*
X27583607Y-27590993D01*
X27628754Y-27746386D01*
X27628757Y-27746393D01*
X27629341Y-27747381D01*
X27629562Y-27748254D01*
X27631853Y-27753547D01*
X27630998Y-27753916D01*
X27646521Y-27815105D01*
X27624360Y-27881367D01*
X27569892Y-27925128D01*
X27522607Y-27934498D01*
X24839742Y-27934498D01*
X24772703Y-27914813D01*
X24726948Y-27862009D01*
X24717004Y-27792851D01*
X24746029Y-27729295D01*
X24783447Y-27700013D01*
X24812816Y-27685049D01*
X24834789Y-27669084D01*
X24984786Y-27560107D01*
X24984788Y-27560104D01*
X24984792Y-27560102D01*
X25135104Y-27409790D01*
X25135106Y-27409786D01*
X25135109Y-27409784D01*
X25249171Y-27252789D01*
X25260051Y-27237814D01*
X25356557Y-27048410D01*
X25422246Y-26846241D01*
X25455500Y-26636285D01*
X25455500Y-26423711D01*
X25422246Y-26213755D01*
X25398280Y-26139996D01*
X27586746Y-26139996D01*
X28141250Y-26139996D01*
X28141250Y-25611206D01*
X28141249Y-25611205D01*
X28120337Y-25612850D01*
X28120331Y-25612851D01*
X27965059Y-25657962D01*
X27965054Y-25657964D01*
X27825875Y-25740274D01*
X27825866Y-25740281D01*
X27711535Y-25854612D01*
X27711528Y-25854621D01*
X27629218Y-25993800D01*
X27586746Y-26139996D01*
X25398280Y-26139996D01*
X25356557Y-26011586D01*
X25260051Y-25822182D01*
X25260049Y-25822179D01*
X25260048Y-25822177D01*
X25135109Y-25650211D01*
X24984786Y-25499888D01*
X24812820Y-25374949D01*
X24623414Y-25278442D01*
X24623413Y-25278441D01*
X24623412Y-25278441D01*
X24421243Y-25212752D01*
X24421241Y-25212751D01*
X24421240Y-25212751D01*
X24214355Y-25179984D01*
X24211287Y-25179498D01*
X23998713Y-25179498D01*
X23995645Y-25179984D01*
X23788760Y-25212751D01*
X23586585Y-25278442D01*
X23397179Y-25374949D01*
X23225213Y-25499888D01*
X23074890Y-25650211D01*
X22949949Y-25822180D01*
X22934984Y-25851551D01*
X22887009Y-25902346D01*
X22819188Y-25919141D01*
X22753054Y-25896603D01*
X22709603Y-25841887D01*
X22700500Y-25795255D01*
X22700500Y-24464425D01*
X22700816Y-24455579D01*
X22707609Y-24360606D01*
X22715130Y-24255434D01*
X22717646Y-24237936D01*
X22759356Y-24046198D01*
X22764335Y-24029240D01*
X22832911Y-23845380D01*
X22840251Y-23829308D01*
X22934294Y-23657081D01*
X22943850Y-23642212D01*
X23061443Y-23485126D01*
X23073017Y-23471769D01*
X23211771Y-23333015D01*
X23225128Y-23321441D01*
X23382214Y-23203848D01*
X23397083Y-23194292D01*
X23569310Y-23100249D01*
X23585382Y-23092909D01*
X23769242Y-23024333D01*
X23786200Y-23019354D01*
X23977938Y-22977644D01*
X23995436Y-22975128D01*
X24195582Y-22960814D01*
X24204428Y-22960498D01*
X26021966Y-22960498D01*
X26021969Y-22960498D01*
X26364250Y-22926786D01*
X26531219Y-22893573D01*
X26701557Y-22859692D01*
X26701568Y-22859689D01*
X26701568Y-22859688D01*
X26701578Y-22859687D01*
X27030705Y-22759848D01*
X27348461Y-22628229D01*
X27651787Y-22466098D01*
X27937760Y-22275017D01*
X28203627Y-22056825D01*
X28325227Y-21935225D01*
X28371820Y-21888633D01*
X28371821Y-21888630D01*
X28900321Y-21360130D01*
X28961644Y-21326645D01*
X29031336Y-21331629D01*
G37*
%TD.AperFunction*%
%TA.AperFunction,Conductor*%
G36*
X52772830Y-18953933D02*
G01*
X52818585Y-19006737D01*
X52828529Y-19075895D01*
X52799504Y-19139451D01*
X52749123Y-19174430D01*
X52737675Y-19178699D01*
X52737666Y-19178704D01*
X52622457Y-19264950D01*
X52622454Y-19264953D01*
X52536208Y-19380162D01*
X52536204Y-19380169D01*
X52485910Y-19515015D01*
X52480644Y-19564001D01*
X52479503Y-19574621D01*
X52479502Y-19574633D01*
X52479502Y-21470368D01*
X52479503Y-21470374D01*
X52485910Y-21529981D01*
X52536204Y-21664826D01*
X52536208Y-21664833D01*
X52622454Y-21780042D01*
X52622457Y-21780045D01*
X52737666Y-21866291D01*
X52737673Y-21866295D01*
X52872519Y-21916589D01*
X52872518Y-21916589D01*
X52879446Y-21917333D01*
X52932129Y-21922998D01*
X55227874Y-21922997D01*
X55287485Y-21916589D01*
X55422333Y-21866294D01*
X55537548Y-21780044D01*
X55623798Y-21664829D01*
X55674093Y-21529981D01*
X55680502Y-21470371D01*
X55680501Y-19574626D01*
X55674093Y-19515015D01*
X55650509Y-19451784D01*
X55623799Y-19380169D01*
X55623795Y-19380162D01*
X55537549Y-19264953D01*
X55537546Y-19264950D01*
X55422337Y-19178704D01*
X55422328Y-19178699D01*
X55410881Y-19174430D01*
X55354947Y-19132559D01*
X55330529Y-19067095D01*
X55345380Y-18998822D01*
X55394785Y-18949416D01*
X55454213Y-18934248D01*
X60615358Y-18934248D01*
X60676822Y-18934248D01*
X60685668Y-18934564D01*
X60885811Y-18948878D01*
X60903313Y-18951395D01*
X61095045Y-18993103D01*
X61112010Y-18998084D01*
X61295861Y-19066657D01*
X61311944Y-19074001D01*
X61471910Y-19161350D01*
X61484158Y-19168038D01*
X61499041Y-19177603D01*
X61656114Y-19295186D01*
X61669485Y-19306772D01*
X61808225Y-19445512D01*
X61819811Y-19458883D01*
X61937394Y-19615956D01*
X61946959Y-19630839D01*
X62040993Y-19803048D01*
X62048343Y-19819142D01*
X62116911Y-20002982D01*
X62121895Y-20019957D01*
X62163601Y-20211679D01*
X62166119Y-20229190D01*
X62180434Y-20429328D01*
X62180750Y-20438175D01*
X62180750Y-22937755D01*
X62161065Y-23004794D01*
X62108261Y-23050549D01*
X62039103Y-23060493D01*
X61975547Y-23031468D01*
X61946266Y-22994051D01*
X61931300Y-22964680D01*
X61806359Y-22792711D01*
X61656036Y-22642388D01*
X61484070Y-22517449D01*
X61294664Y-22420942D01*
X61294663Y-22420941D01*
X61294662Y-22420941D01*
X61092493Y-22355252D01*
X61092491Y-22355251D01*
X61092490Y-22355251D01*
X60924858Y-22328701D01*
X60882537Y-22321998D01*
X60669963Y-22321998D01*
X60627642Y-22328701D01*
X60460010Y-22355251D01*
X60257835Y-22420942D01*
X60068429Y-22517449D01*
X59896463Y-22642388D01*
X59746140Y-22792711D01*
X59621201Y-22964677D01*
X59524694Y-23154083D01*
X59459003Y-23356258D01*
X59425750Y-23566211D01*
X59425750Y-23778785D01*
X59459004Y-23988741D01*
X59524106Y-24189104D01*
X59524694Y-24190912D01*
X59621201Y-24380318D01*
X59746140Y-24552284D01*
X59896463Y-24702607D01*
X60068429Y-24827546D01*
X60068431Y-24827547D01*
X60068434Y-24827549D01*
X60257838Y-24924055D01*
X60460007Y-24989744D01*
X60669963Y-25022998D01*
X60669964Y-25022998D01*
X60882536Y-25022998D01*
X60882537Y-25022998D01*
X61092493Y-24989744D01*
X61294662Y-24924055D01*
X61484066Y-24827549D01*
X61506039Y-24811584D01*
X61656036Y-24702607D01*
X61656038Y-24702604D01*
X61656042Y-24702602D01*
X61806354Y-24552290D01*
X61806356Y-24552286D01*
X61806359Y-24552284D01*
X61931298Y-24380318D01*
X61931297Y-24380318D01*
X61931301Y-24380314D01*
X61946265Y-24350944D01*
X61994239Y-24300149D01*
X62062060Y-24283354D01*
X62128195Y-24305891D01*
X62171647Y-24360606D01*
X62180750Y-24407240D01*
X62180750Y-26430570D01*
X62180434Y-26439417D01*
X62166119Y-26639555D01*
X62163601Y-26657066D01*
X62121895Y-26848788D01*
X62116911Y-26865763D01*
X62048343Y-27049603D01*
X62040993Y-27065697D01*
X61946959Y-27237906D01*
X61937394Y-27252789D01*
X61819811Y-27409862D01*
X61808225Y-27423233D01*
X61669485Y-27561973D01*
X61656114Y-27573559D01*
X61499041Y-27691142D01*
X61484158Y-27700707D01*
X61311949Y-27794741D01*
X61295855Y-27802091D01*
X61112015Y-27870659D01*
X61095040Y-27875643D01*
X60903318Y-27917349D01*
X60885807Y-27919867D01*
X60705029Y-27932797D01*
X60685667Y-27934182D01*
X60676822Y-27934498D01*
X55800902Y-27934498D01*
X55733863Y-27914813D01*
X55688108Y-27862009D01*
X55677613Y-27797243D01*
X55679020Y-27784154D01*
X55680502Y-27770371D01*
X55680501Y-25874626D01*
X55674093Y-25815015D01*
X55646216Y-25740274D01*
X55623799Y-25680169D01*
X55623795Y-25680162D01*
X55537549Y-25564953D01*
X55537546Y-25564950D01*
X55422337Y-25478704D01*
X55422330Y-25478700D01*
X55287484Y-25428406D01*
X55287485Y-25428406D01*
X55227885Y-25421999D01*
X55227883Y-25421998D01*
X55227875Y-25421998D01*
X55227866Y-25421998D01*
X52932131Y-25421998D01*
X52932125Y-25421999D01*
X52872518Y-25428406D01*
X52737673Y-25478700D01*
X52737666Y-25478704D01*
X52622457Y-25564950D01*
X52622454Y-25564953D01*
X52536208Y-25680162D01*
X52536204Y-25680169D01*
X52485910Y-25815015D01*
X52479994Y-25870047D01*
X52479503Y-25874621D01*
X52479502Y-25874633D01*
X52479502Y-27770368D01*
X52479503Y-27770371D01*
X52482392Y-27797244D01*
X52469985Y-27866003D01*
X52422375Y-27917140D01*
X52359102Y-27934498D01*
X48273248Y-27934498D01*
X48206209Y-27914813D01*
X48160454Y-27862009D01*
X48149248Y-27810498D01*
X48149248Y-26848333D01*
X48168933Y-26781294D01*
X48203752Y-26745638D01*
X48245781Y-26717199D01*
X48380954Y-26582026D01*
X48488088Y-26423705D01*
X48563307Y-26247963D01*
X48603890Y-26061157D01*
X48608370Y-25870047D01*
X48576583Y-25681545D01*
X48509681Y-25502472D01*
X48507405Y-25498744D01*
X48489250Y-25434145D01*
X48489250Y-24189104D01*
X48508935Y-24122065D01*
X48561739Y-24076310D01*
X48630897Y-24066366D01*
X48682141Y-24086002D01*
X48750815Y-24131889D01*
X48750828Y-24131896D01*
X48896499Y-24192234D01*
X48896504Y-24192236D01*
X49017265Y-24216257D01*
X49051154Y-24222998D01*
X49051157Y-24222999D01*
X49051159Y-24222999D01*
X49208845Y-24222999D01*
X49208846Y-24222998D01*
X49363498Y-24192236D01*
X49508048Y-24132361D01*
X49577516Y-24124893D01*
X49639995Y-24156168D01*
X49675647Y-24216257D01*
X49679499Y-24246923D01*
X49679499Y-24620367D01*
X49679500Y-24620382D01*
X49683678Y-24659250D01*
X49683678Y-24685752D01*
X49679500Y-24724618D01*
X49679500Y-25120368D01*
X49679501Y-25120374D01*
X49685908Y-25179981D01*
X49736202Y-25314826D01*
X49736206Y-25314833D01*
X49822452Y-25430042D01*
X49822455Y-25430045D01*
X49937664Y-25516291D01*
X49937671Y-25516295D01*
X50072517Y-25566589D01*
X50072516Y-25566589D01*
X50079444Y-25567333D01*
X50132127Y-25572998D01*
X51527872Y-25572997D01*
X51587483Y-25566589D01*
X51722331Y-25516294D01*
X51837546Y-25430044D01*
X51923796Y-25314829D01*
X51974091Y-25179981D01*
X51980500Y-25120371D01*
X51980499Y-24724626D01*
X51976319Y-24685740D01*
X51976319Y-24659240D01*
X51980499Y-24620373D01*
X51980498Y-24224628D01*
X51976874Y-24190912D01*
X51976319Y-24185750D01*
X51976319Y-24159244D01*
X51980499Y-24120369D01*
X51980498Y-23724624D01*
X51976318Y-23685739D01*
X51976318Y-23659239D01*
X51980498Y-23620372D01*
X51980497Y-23224627D01*
X51976318Y-23185757D01*
X51976318Y-23159247D01*
X51976873Y-23154086D01*
X51980499Y-23120370D01*
X51980498Y-22724625D01*
X51974090Y-22665014D01*
X51923795Y-22530166D01*
X51879359Y-22470808D01*
X51854943Y-22405344D01*
X51869795Y-22337072D01*
X51919200Y-22287666D01*
X51978627Y-22272498D01*
X51980000Y-22272498D01*
X51980000Y-22224670D01*
X51979999Y-22224653D01*
X51973598Y-22165125D01*
X51973596Y-22165118D01*
X51923354Y-22030411D01*
X51923350Y-22030404D01*
X51837190Y-21915310D01*
X51837187Y-21915307D01*
X51722093Y-21829147D01*
X51722086Y-21829143D01*
X51587379Y-21778901D01*
X51587372Y-21778899D01*
X51527844Y-21772498D01*
X50980000Y-21772498D01*
X50980000Y-22147997D01*
X50977449Y-22156682D01*
X50978738Y-22165644D01*
X50967759Y-22189684D01*
X50960315Y-22215036D01*
X50953474Y-22220963D01*
X50949713Y-22229200D01*
X50927478Y-22243489D01*
X50907511Y-22260791D01*
X50896996Y-22263078D01*
X50890935Y-22266974D01*
X50856000Y-22271997D01*
X50804000Y-22271997D01*
X50736961Y-22252312D01*
X50691206Y-22199508D01*
X50680000Y-22147997D01*
X50680000Y-21772498D01*
X50132155Y-21772498D01*
X50067755Y-21779423D01*
X49998995Y-21767018D01*
X49947858Y-21719408D01*
X49930499Y-21656134D01*
X49930499Y-21099692D01*
X49925442Y-21080818D01*
X49889576Y-20946964D01*
X49850694Y-20879619D01*
X49817489Y-20822106D01*
X49810521Y-20810036D01*
X49810517Y-20810031D01*
X49589330Y-20588844D01*
X49589329Y-20588843D01*
X49493348Y-20533429D01*
X49460059Y-20514209D01*
X49460057Y-20514207D01*
X49434379Y-20494503D01*
X49387453Y-20447576D01*
X49387449Y-20447573D01*
X49256346Y-20359972D01*
X49256340Y-20359969D01*
X49189045Y-20332094D01*
X49134642Y-20288252D01*
X49112578Y-20221958D01*
X49112499Y-20217533D01*
X49112499Y-20166624D01*
X49112498Y-20166599D01*
X49109645Y-20130338D01*
X49064530Y-19975052D01*
X48982221Y-19835874D01*
X48982214Y-19835865D01*
X48867883Y-19721534D01*
X48867874Y-19721527D01*
X48728693Y-19639216D01*
X48728690Y-19639214D01*
X48582501Y-19596742D01*
X48582500Y-19596743D01*
X48582500Y-20242106D01*
X48579238Y-20253214D01*
X48580418Y-20264734D01*
X48569572Y-20286131D01*
X48562815Y-20309145D01*
X48553256Y-20318322D01*
X48548830Y-20327056D01*
X48532193Y-20338545D01*
X48521238Y-20349064D01*
X48513857Y-20353393D01*
X48497982Y-20359969D01*
X48464455Y-20382371D01*
X48461325Y-20384207D01*
X48430808Y-20391832D01*
X48400802Y-20401229D01*
X48398587Y-20401249D01*
X48290447Y-20401249D01*
X48223408Y-20381564D01*
X48177653Y-20328760D01*
X48168830Y-20301441D01*
X48155383Y-20233840D01*
X48153000Y-20209648D01*
X48153000Y-20166566D01*
X48152999Y-20166551D01*
X48151894Y-20152515D01*
X48150143Y-20130256D01*
X48148487Y-20124557D01*
X48104995Y-19974857D01*
X48104992Y-19974849D01*
X48099766Y-19966012D01*
X48082500Y-19902894D01*
X48082500Y-19596743D01*
X48082498Y-19596742D01*
X47936309Y-19639214D01*
X47936306Y-19639216D01*
X47916108Y-19651161D01*
X47848384Y-19668341D01*
X47789870Y-19651159D01*
X47768897Y-19638756D01*
X47768890Y-19638753D01*
X47613497Y-19593606D01*
X47613491Y-19593605D01*
X47577197Y-19590749D01*
X47577190Y-19590749D01*
X47167810Y-19590749D01*
X47167802Y-19590749D01*
X47131508Y-19593605D01*
X47131502Y-19593606D01*
X46976109Y-19638753D01*
X46976106Y-19638754D01*
X46836815Y-19721130D01*
X46836811Y-19721133D01*
X46722376Y-19835568D01*
X46719920Y-19838736D01*
X46713921Y-19843968D01*
X46711690Y-19848297D01*
X46683948Y-19870115D01*
X46655250Y-19886684D01*
X46587349Y-19903157D01*
X46521322Y-19880305D01*
X46478132Y-19825384D01*
X46469249Y-19779297D01*
X46469249Y-19718653D01*
X46469248Y-19718651D01*
X46466516Y-19704918D01*
X46438486Y-19564001D01*
X46421174Y-19522205D01*
X46378146Y-19418325D01*
X46378139Y-19418312D01*
X46290538Y-19287209D01*
X46290535Y-19287205D01*
X46179041Y-19175711D01*
X46179037Y-19175708D01*
X46157549Y-19161350D01*
X46112744Y-19107737D01*
X46104037Y-19038412D01*
X46134192Y-18975385D01*
X46193635Y-18938666D01*
X46226440Y-18934248D01*
X52705791Y-18934248D01*
X52772830Y-18953933D01*
G37*
%TD.AperFunction*%
%TA.AperFunction,Conductor*%
G36*
X48280566Y-21620695D02*
G01*
X48324915Y-21649196D01*
X48366868Y-21691149D01*
X48366872Y-21691152D01*
X48497975Y-21778753D01*
X48497988Y-21778760D01*
X48595703Y-21819234D01*
X48619625Y-21829143D01*
X48649292Y-21841431D01*
X48648601Y-21843098D01*
X48699934Y-21876740D01*
X48728390Y-21940553D01*
X48729499Y-21957102D01*
X48729499Y-22343438D01*
X48729498Y-22501553D01*
X48737870Y-22532796D01*
X48757816Y-22607236D01*
X48757246Y-22631161D01*
X48761074Y-22654783D01*
X48756429Y-22665451D01*
X48756153Y-22677085D01*
X48742738Y-22696905D01*
X48733188Y-22718846D01*
X48719672Y-22730986D01*
X48716991Y-22734948D01*
X48706931Y-22742431D01*
X48619650Y-22800750D01*
X48552973Y-22821628D01*
X48485593Y-22803143D01*
X48448063Y-22767141D01*
X48380959Y-22667975D01*
X48380955Y-22667970D01*
X48380954Y-22667968D01*
X48245782Y-22532795D01*
X48203255Y-22504017D01*
X48158766Y-22450143D01*
X48148750Y-22401321D01*
X48148750Y-22150000D01*
X47362750Y-22150000D01*
X47295711Y-22130315D01*
X47249956Y-22077511D01*
X47238750Y-22026000D01*
X47238750Y-21774000D01*
X47258435Y-21706961D01*
X47311239Y-21661206D01*
X47362750Y-21650000D01*
X48148749Y-21650000D01*
X48149552Y-21649197D01*
X48210874Y-21615711D01*
X48280566Y-21620695D01*
G37*
%TD.AperFunction*%
%TA.AperFunction,Conductor*%
G36*
X33498926Y-20720511D02*
G01*
X33511552Y-20720771D01*
X33530611Y-20733581D01*
X33551842Y-20742340D01*
X33559059Y-20752703D01*
X33569540Y-20759748D01*
X33578647Y-20780828D01*
X33591773Y-20799675D01*
X33595792Y-20814809D01*
X33599011Y-20830993D01*
X33599013Y-20830999D01*
X33659351Y-20976670D01*
X33659358Y-20976683D01*
X33747351Y-21108372D01*
X33768229Y-21175049D01*
X33768249Y-21177263D01*
X33768249Y-21776001D01*
X33748564Y-21843040D01*
X33742489Y-21851664D01*
X33604241Y-22031164D01*
X33580082Y-22048737D01*
X33557512Y-22068295D01*
X33551355Y-22069634D01*
X33547739Y-22072265D01*
X33536197Y-22072931D01*
X33506001Y-22079501D01*
X33395303Y-22079501D01*
X33359009Y-22082357D01*
X33359003Y-22082358D01*
X33203611Y-22127504D01*
X33203606Y-22127507D01*
X33194767Y-22132733D01*
X33131649Y-22150001D01*
X32825497Y-22150001D01*
X32867969Y-22296195D01*
X32879912Y-22316390D01*
X32897093Y-22384114D01*
X32890075Y-22420878D01*
X32886050Y-22432250D01*
X32867507Y-22463606D01*
X32833353Y-22581160D01*
X32832160Y-22584534D01*
X32813698Y-22610082D01*
X32796733Y-22636647D01*
X32793391Y-22638184D01*
X32791238Y-22641165D01*
X32761896Y-22652676D01*
X32733260Y-22665853D01*
X32729618Y-22665339D01*
X32726195Y-22666683D01*
X32695292Y-22660504D01*
X32664074Y-22656107D01*
X32660328Y-22653514D01*
X32657681Y-22652985D01*
X32652934Y-22648395D01*
X32627582Y-22630846D01*
X32529535Y-22532797D01*
X32487005Y-22504017D01*
X32442516Y-22450143D01*
X32432500Y-22401321D01*
X32432500Y-22150000D01*
X31646500Y-22150000D01*
X31579461Y-22130315D01*
X31533706Y-22077511D01*
X31522500Y-22026000D01*
X31522500Y-21774000D01*
X31542185Y-21706961D01*
X31594989Y-21661206D01*
X31646500Y-21650000D01*
X32432500Y-21650000D01*
X32432500Y-21373022D01*
X32426044Y-21301985D01*
X32395866Y-21205139D01*
X32394714Y-21135279D01*
X32431515Y-21075887D01*
X32494584Y-21045819D01*
X32514238Y-21044249D01*
X32910429Y-21044249D01*
X32946453Y-21041415D01*
X32946457Y-21041413D01*
X32952686Y-21040277D01*
X32953049Y-21042265D01*
X33013475Y-21042421D01*
X33072155Y-21080347D01*
X33101016Y-21143978D01*
X33090894Y-21213110D01*
X33065915Y-21248989D01*
X32950283Y-21364621D01*
X32950279Y-21364626D01*
X32867969Y-21503805D01*
X32825497Y-21650001D01*
X33380001Y-21650001D01*
X33380001Y-21121211D01*
X33380000Y-21121210D01*
X33359088Y-21122855D01*
X33358320Y-21122996D01*
X33358130Y-21123113D01*
X33357725Y-21123104D01*
X33352857Y-21123994D01*
X33352675Y-21123000D01*
X33324240Y-21122415D01*
X33290365Y-21122315D01*
X33289411Y-21121698D01*
X33288275Y-21121675D01*
X33260145Y-21102767D01*
X33231699Y-21084367D01*
X33231229Y-21083331D01*
X33230287Y-21082698D01*
X33216858Y-21051614D01*
X33202862Y-21020726D01*
X33203027Y-21019600D01*
X33202577Y-21018558D01*
X33208089Y-20985122D01*
X33213011Y-20951597D01*
X33213817Y-20950373D01*
X33213942Y-20949619D01*
X33219213Y-20942191D01*
X33233631Y-20920327D01*
X33238201Y-20915266D01*
X33238847Y-20914885D01*
X33352384Y-20801348D01*
X33373794Y-20765144D01*
X33382154Y-20755889D01*
X33401724Y-20743873D01*
X33418511Y-20728200D01*
X33430935Y-20725939D01*
X33441697Y-20719333D01*
X33464655Y-20719805D01*
X33487252Y-20715695D01*
X33498926Y-20720511D01*
G37*
%TD.AperFunction*%
%TA.AperFunction,Conductor*%
G36*
X39128604Y-19720185D02*
G01*
X39174359Y-19772989D01*
X39184303Y-19842147D01*
X39155278Y-19905703D01*
X39130456Y-19927602D01*
X39058460Y-19975708D01*
X39058456Y-19975711D01*
X38946962Y-20087205D01*
X38946959Y-20087209D01*
X38859358Y-20218312D01*
X38859351Y-20218325D01*
X38799013Y-20363996D01*
X38799010Y-20364008D01*
X38768249Y-20518651D01*
X38768249Y-20676344D01*
X38799010Y-20830987D01*
X38799013Y-20830999D01*
X38847703Y-20948548D01*
X38855172Y-21018017D01*
X38823896Y-21080496D01*
X38763807Y-21116148D01*
X38733143Y-21120000D01*
X38634125Y-21120000D01*
X38634103Y-21120001D01*
X38597840Y-21122854D01*
X38442554Y-21167969D01*
X38303376Y-21250278D01*
X38303367Y-21250285D01*
X38189036Y-21364616D01*
X38189029Y-21364625D01*
X38106719Y-21503804D01*
X38064247Y-21650000D01*
X38744751Y-21650000D01*
X38753436Y-21652550D01*
X38762398Y-21651262D01*
X38786438Y-21662240D01*
X38811790Y-21669685D01*
X38817717Y-21676525D01*
X38825954Y-21680287D01*
X38840243Y-21702521D01*
X38857545Y-21722489D01*
X38859832Y-21733003D01*
X38863728Y-21739065D01*
X38868751Y-21774000D01*
X38868751Y-21955500D01*
X38849066Y-22022539D01*
X38796262Y-22068294D01*
X38744751Y-22079500D01*
X38634053Y-22079500D01*
X38597759Y-22082356D01*
X38597753Y-22082357D01*
X38442361Y-22127503D01*
X38442356Y-22127506D01*
X38433517Y-22132732D01*
X38370399Y-22150000D01*
X38064247Y-22150000D01*
X38106719Y-22296194D01*
X38118662Y-22316389D01*
X38135843Y-22384113D01*
X38128825Y-22420876D01*
X38124799Y-22432251D01*
X38106257Y-22463605D01*
X38072103Y-22581158D01*
X38070910Y-22584533D01*
X38052448Y-22610083D01*
X38035483Y-22636647D01*
X38032143Y-22638183D01*
X38029989Y-22641165D01*
X38000647Y-22652676D01*
X37972011Y-22665853D01*
X37968368Y-22665339D01*
X37964945Y-22666683D01*
X37934042Y-22660504D01*
X37902824Y-22656107D01*
X37899078Y-22653514D01*
X37896432Y-22652985D01*
X37891687Y-22648397D01*
X37866332Y-22630846D01*
X37768285Y-22532797D01*
X37725755Y-22504017D01*
X37681266Y-22450143D01*
X37671250Y-22401321D01*
X37671250Y-22150000D01*
X36885250Y-22150000D01*
X36818211Y-22130315D01*
X36772456Y-22077511D01*
X36761250Y-22026000D01*
X36761250Y-21900000D01*
X36635250Y-21900000D01*
X36568211Y-21880315D01*
X36522456Y-21827511D01*
X36511250Y-21776000D01*
X36511250Y-21650000D01*
X37011250Y-21650000D01*
X37671250Y-21650000D01*
X37671250Y-21373022D01*
X37664794Y-21301985D01*
X37613862Y-21138536D01*
X37525287Y-20992016D01*
X37404233Y-20870962D01*
X37257712Y-20782387D01*
X37257713Y-20782387D01*
X37094263Y-20731455D01*
X37094265Y-20731455D01*
X37023227Y-20725000D01*
X37011250Y-20725000D01*
X37011250Y-21650000D01*
X36511250Y-21650000D01*
X36511250Y-20725000D01*
X36499273Y-20725000D01*
X36428235Y-20731455D01*
X36264786Y-20782387D01*
X36118266Y-20870962D01*
X36099283Y-20889945D01*
X36037960Y-20923429D01*
X35968268Y-20918443D01*
X35923921Y-20889941D01*
X35904546Y-20870565D01*
X35904543Y-20870563D01*
X35757925Y-20781929D01*
X35757923Y-20781928D01*
X35757921Y-20781927D01*
X35757922Y-20781927D01*
X35594356Y-20730959D01*
X35594358Y-20730959D01*
X35565924Y-20728375D01*
X35523278Y-20724500D01*
X35523275Y-20724500D01*
X35293249Y-20724500D01*
X35226210Y-20704815D01*
X35180455Y-20652011D01*
X35169249Y-20600500D01*
X35169249Y-20518653D01*
X35169248Y-20518651D01*
X35155110Y-20447574D01*
X35138486Y-20364001D01*
X35123183Y-20327056D01*
X35078146Y-20218325D01*
X35078139Y-20218312D01*
X34990538Y-20087209D01*
X34990535Y-20087205D01*
X34879041Y-19975711D01*
X34879037Y-19975708D01*
X34807042Y-19927602D01*
X34762237Y-19873989D01*
X34753530Y-19804664D01*
X34783685Y-19741637D01*
X34843128Y-19704918D01*
X34875933Y-19700500D01*
X39061565Y-19700500D01*
X39128604Y-19720185D01*
G37*
%TD.AperFunction*%
%TA.AperFunction,Conductor*%
G36*
X43690414Y-19710039D02*
G01*
X43723092Y-19719004D01*
X43723861Y-19719861D01*
X43724965Y-19720185D01*
X43747122Y-19745756D01*
X43769783Y-19770983D01*
X43769967Y-19772120D01*
X43770720Y-19772989D01*
X43775540Y-19806511D01*
X43780959Y-19839953D01*
X43780500Y-19841007D01*
X43780664Y-19842147D01*
X43766590Y-19872964D01*
X43753074Y-19904017D01*
X43751946Y-19905029D01*
X43751639Y-19905703D01*
X43726817Y-19927602D01*
X43654821Y-19975708D01*
X43654817Y-19975711D01*
X43543323Y-20087205D01*
X43543320Y-20087209D01*
X43455719Y-20218312D01*
X43455712Y-20218325D01*
X43395374Y-20363996D01*
X43395371Y-20364006D01*
X43364472Y-20519346D01*
X43332087Y-20581257D01*
X43330536Y-20582835D01*
X43160669Y-20752703D01*
X43000035Y-20913337D01*
X43000033Y-20913339D01*
X42964824Y-20948548D01*
X42930377Y-20982995D01*
X42869053Y-21016479D01*
X42799362Y-21011494D01*
X42755015Y-20982994D01*
X42642983Y-20870962D01*
X42496462Y-20782387D01*
X42496463Y-20782387D01*
X42333013Y-20731455D01*
X42333015Y-20731455D01*
X42261977Y-20725000D01*
X42250000Y-20725000D01*
X42250000Y-21776000D01*
X42230315Y-21843039D01*
X42177511Y-21888794D01*
X42126000Y-21900000D01*
X41874000Y-21900000D01*
X41806961Y-21880315D01*
X41761206Y-21827511D01*
X41750000Y-21776000D01*
X41750000Y-20725000D01*
X41738023Y-20725000D01*
X41666985Y-20731455D01*
X41503536Y-20782387D01*
X41357016Y-20870962D01*
X41338033Y-20889945D01*
X41276710Y-20923429D01*
X41207018Y-20918443D01*
X41162671Y-20889941D01*
X41143296Y-20870565D01*
X41143293Y-20870563D01*
X40996675Y-20781929D01*
X40996673Y-20781928D01*
X40996671Y-20781927D01*
X40996672Y-20781927D01*
X40833106Y-20730959D01*
X40833108Y-20730959D01*
X40804674Y-20728375D01*
X40762028Y-20724500D01*
X40762025Y-20724500D01*
X40493249Y-20724500D01*
X40426210Y-20704815D01*
X40380455Y-20652011D01*
X40369249Y-20600500D01*
X40369249Y-20518653D01*
X40369248Y-20518651D01*
X40355110Y-20447574D01*
X40338486Y-20364001D01*
X40323183Y-20327056D01*
X40278146Y-20218325D01*
X40278139Y-20218312D01*
X40190538Y-20087209D01*
X40190535Y-20087205D01*
X40079041Y-19975711D01*
X40079037Y-19975708D01*
X40007042Y-19927602D01*
X39962237Y-19873989D01*
X39953530Y-19804664D01*
X39983685Y-19741637D01*
X40043128Y-19704918D01*
X40075933Y-19700500D01*
X43657926Y-19700500D01*
X43690414Y-19710039D01*
G37*
%TD.AperFunction*%
%TD*%
M02*
