%TF.GenerationSoftware,KiCad,Pcbnew,10.0.3*%
%TF.CreationDate,2026-08-03T23:11:29+09:00*%
%TF.ProjectId,knob,6b6e6f62-2e6b-4696-9361-645f70636258,rev?*%
%TF.SameCoordinates,Original*%
%TF.FileFunction,Copper,L1,Top*%
%TF.FilePolarity,Positive*%
%FSLAX46Y46*%
G04 Gerber Fmt 4.6, Leading zero omitted, Abs format (unit mm)*
G04 Created by KiCad (PCBNEW 10.0.3) date 2026-08-03 23:11:29*
%MOMM*%
%LPD*%
G01*
G04 APERTURE LIST*
%TA.AperFunction,ComponentPad*%
%ADD10R,2.000000X2.000000*%
%TD*%
%TA.AperFunction,ComponentPad*%
%ADD11C,2.000000*%
%TD*%
%TA.AperFunction,ComponentPad*%
%ADD12R,3.200000X2.000000*%
%TD*%
%TA.AperFunction,ViaPad*%
%ADD13C,0.600000*%
%TD*%
%TA.AperFunction,Conductor*%
%ADD14C,0.200000*%
%TD*%
G04 APERTURE END LIST*
D10*
%TO.P,SW47,A,A_A*%
%TO.N,ENC_A*%
X40125000Y-40362500D03*
D11*
%TO.P,SW47,B,B_B*%
%TO.N,ENC_B*%
X40125000Y-45362500D03*
%TO.P,SW47,C,C_C*%
%TO.N,GND*%
X40125000Y-42862500D03*
D12*
%TO.P,SW47,MP*%
%TO.N,N/C*%
X47625000Y-37262500D03*
X47625000Y-48462500D03*
D11*
%TO.P,SW47,S1,S1_S1*%
%TO.N,COL*%
X54625000Y-45362500D03*
%TO.P,SW47,S2,S2_S2*%
%TO.N,Net-(D47-A)*%
X54625000Y-40362500D03*
%TD*%
D13*
%TO.N,ENC_A*%
X36863750Y-45112499D03*
%TD*%
%TO.N,ENC_A*%
D14*
X36863750Y-41212499D02*
X37713749Y-40362500D01*
X36863750Y-45112499D02*
X36863750Y-41212499D01*
X37713749Y-40362500D02*
X40125000Y-40362500D01*
%TD*%
%TA.AperFunction,Conductor*%
%TO.N,GND*%
G36*
X54577297Y-33857685D02*
G01*
X54623052Y-33910489D01*
X54632996Y-33979647D01*
X54603971Y-34043203D01*
X54566553Y-34072484D01*
X54557907Y-34076889D01*
X54537179Y-34087451D01*
X54365213Y-34212390D01*
X54214890Y-34362713D01*
X54089951Y-34534679D01*
X53993444Y-34724085D01*
X53927753Y-34926260D01*
X53894500Y-35136213D01*
X53894500Y-35348786D01*
X53927753Y-35558739D01*
X53993444Y-35760914D01*
X54089951Y-35950320D01*
X54214890Y-36122286D01*
X54365213Y-36272609D01*
X54537179Y-36397548D01*
X54537181Y-36397549D01*
X54537184Y-36397551D01*
X54726588Y-36494057D01*
X54928757Y-36559746D01*
X55138713Y-36593000D01*
X55138714Y-36593000D01*
X55351286Y-36593000D01*
X55351287Y-36593000D01*
X55561243Y-36559746D01*
X55763412Y-36494057D01*
X55952816Y-36397551D01*
X55974789Y-36381586D01*
X56124786Y-36272609D01*
X56124788Y-36272606D01*
X56124792Y-36272604D01*
X56275104Y-36122292D01*
X56275106Y-36122288D01*
X56275109Y-36122286D01*
X56400048Y-35950320D01*
X56400047Y-35950320D01*
X56400051Y-35950316D01*
X56415015Y-35920946D01*
X56462989Y-35870151D01*
X56530810Y-35853356D01*
X56596945Y-35875893D01*
X56640397Y-35930608D01*
X56649500Y-35977242D01*
X56649500Y-49747757D01*
X56629815Y-49814796D01*
X56577011Y-49860551D01*
X56507853Y-49870495D01*
X56444297Y-49841470D01*
X56415016Y-49804053D01*
X56400050Y-49774682D01*
X56275109Y-49602713D01*
X56124786Y-49452390D01*
X55952820Y-49327451D01*
X55763414Y-49230944D01*
X55763413Y-49230943D01*
X55763412Y-49230943D01*
X55561243Y-49165254D01*
X55561241Y-49165253D01*
X55561240Y-49165253D01*
X55399957Y-49139708D01*
X55351287Y-49132000D01*
X55138713Y-49132000D01*
X55090042Y-49139708D01*
X54928760Y-49165253D01*
X54726585Y-49230944D01*
X54537179Y-49327451D01*
X54365213Y-49452390D01*
X54214890Y-49602713D01*
X54089951Y-49774679D01*
X53993444Y-49964085D01*
X53927753Y-50166260D01*
X53894500Y-50376213D01*
X53894500Y-50588786D01*
X53927753Y-50798739D01*
X53993444Y-51000914D01*
X54089951Y-51190320D01*
X54214890Y-51362286D01*
X54365213Y-51512609D01*
X54537179Y-51637548D01*
X54537181Y-51637549D01*
X54537184Y-51637551D01*
X54566553Y-51652515D01*
X54617349Y-51700489D01*
X54634144Y-51768310D01*
X54611607Y-51834445D01*
X54556892Y-51877897D01*
X54510258Y-51887000D01*
X31214742Y-51887000D01*
X31147703Y-51867315D01*
X31101948Y-51814511D01*
X31092004Y-51745353D01*
X31121029Y-51681797D01*
X31158447Y-51652515D01*
X31187816Y-51637551D01*
X31209789Y-51621586D01*
X31359786Y-51512609D01*
X31359788Y-51512606D01*
X31359792Y-51512604D01*
X31510104Y-51362292D01*
X31510106Y-51362288D01*
X31510109Y-51362286D01*
X31619086Y-51212289D01*
X31635051Y-51190316D01*
X31731557Y-51000912D01*
X31797246Y-50798743D01*
X31830500Y-50588787D01*
X31830500Y-50376213D01*
X31797246Y-50166257D01*
X31731557Y-49964088D01*
X31635051Y-49774684D01*
X31635049Y-49774681D01*
X31635048Y-49774679D01*
X31510109Y-49602713D01*
X31359786Y-49452390D01*
X31187820Y-49327451D01*
X30998414Y-49230944D01*
X30998413Y-49230943D01*
X30998412Y-49230943D01*
X30796243Y-49165254D01*
X30796241Y-49165253D01*
X30796240Y-49165253D01*
X30634957Y-49139708D01*
X30586287Y-49132000D01*
X30373713Y-49132000D01*
X30325042Y-49139708D01*
X30163760Y-49165253D01*
X29961585Y-49230944D01*
X29772179Y-49327451D01*
X29600213Y-49452390D01*
X29449890Y-49602713D01*
X29324949Y-49774682D01*
X29309984Y-49804053D01*
X29262009Y-49854848D01*
X29194188Y-49871643D01*
X29128054Y-49849105D01*
X29084603Y-49794389D01*
X29075500Y-49747757D01*
X29075500Y-47414635D01*
X45524500Y-47414635D01*
X45524500Y-49510370D01*
X45524501Y-49510376D01*
X45530908Y-49569983D01*
X45581202Y-49704828D01*
X45581206Y-49704835D01*
X45667452Y-49820044D01*
X45667455Y-49820047D01*
X45782664Y-49906293D01*
X45782671Y-49906297D01*
X45917517Y-49956591D01*
X45917516Y-49956591D01*
X45924444Y-49957335D01*
X45977127Y-49963000D01*
X49272872Y-49962999D01*
X49332483Y-49956591D01*
X49467331Y-49906296D01*
X49582546Y-49820046D01*
X49668796Y-49704831D01*
X49719091Y-49569983D01*
X49725500Y-49510373D01*
X49725499Y-47414628D01*
X49719091Y-47355017D01*
X49668796Y-47220169D01*
X49668795Y-47220168D01*
X49668793Y-47220164D01*
X49582547Y-47104955D01*
X49582544Y-47104952D01*
X49467335Y-47018706D01*
X49467328Y-47018702D01*
X49332482Y-46968408D01*
X49332483Y-46968408D01*
X49272883Y-46962001D01*
X49272881Y-46962000D01*
X49272873Y-46962000D01*
X49272864Y-46962000D01*
X45977129Y-46962000D01*
X45977123Y-46962001D01*
X45917516Y-46968408D01*
X45782671Y-47018702D01*
X45782664Y-47018706D01*
X45667455Y-47104952D01*
X45667452Y-47104955D01*
X45581206Y-47220164D01*
X45581202Y-47220171D01*
X45530908Y-47355017D01*
X45524501Y-47414616D01*
X45524501Y-47414623D01*
X45524500Y-47414635D01*
X29075500Y-47414635D01*
X29075500Y-45033652D01*
X36063250Y-45033652D01*
X36063250Y-45191345D01*
X36094011Y-45345988D01*
X36094014Y-45346000D01*
X36154352Y-45491671D01*
X36154359Y-45491684D01*
X36241960Y-45622787D01*
X36241963Y-45622791D01*
X36353457Y-45734285D01*
X36353461Y-45734288D01*
X36484564Y-45821889D01*
X36484577Y-45821896D01*
X36630248Y-45882234D01*
X36630253Y-45882236D01*
X36784903Y-45912998D01*
X36784906Y-45912999D01*
X36784908Y-45912999D01*
X36942594Y-45912999D01*
X36942595Y-45912998D01*
X37097247Y-45882236D01*
X37242929Y-45821893D01*
X37374039Y-45734288D01*
X37485539Y-45622788D01*
X37573144Y-45491678D01*
X37633487Y-45345996D01*
X37640478Y-45310847D01*
X37659476Y-45215344D01*
X37659476Y-45215343D01*
X37664249Y-45191345D01*
X37664250Y-45191343D01*
X37664250Y-45033654D01*
X37664249Y-45033652D01*
X37633488Y-44879009D01*
X37633487Y-44879002D01*
X37595173Y-44786503D01*
X37573147Y-44733326D01*
X37573140Y-44733313D01*
X37485148Y-44601624D01*
X37464270Y-44534946D01*
X37464250Y-44532733D01*
X37464250Y-41512596D01*
X37483935Y-41445557D01*
X37500569Y-41424915D01*
X37926165Y-40999319D01*
X37987488Y-40965834D01*
X38013846Y-40963000D01*
X38500501Y-40963000D01*
X38567540Y-40982685D01*
X38613295Y-41035489D01*
X38624501Y-41087000D01*
X38624501Y-41410376D01*
X38630908Y-41469983D01*
X38681202Y-41604828D01*
X38681206Y-41604835D01*
X38767452Y-41720044D01*
X38767453Y-41720044D01*
X38767454Y-41720046D01*
X38811563Y-41753066D01*
X38885599Y-41808490D01*
X38927469Y-41864424D01*
X38932453Y-41934115D01*
X38911605Y-41980641D01*
X38842087Y-42076324D01*
X38734897Y-42286697D01*
X38661934Y-42511252D01*
X38625000Y-42744447D01*
X38625000Y-42980552D01*
X38661934Y-43213747D01*
X38734897Y-43438302D01*
X38842087Y-43648674D01*
X38902338Y-43731604D01*
X38902340Y-43731605D01*
X39642037Y-42991908D01*
X39659075Y-43055493D01*
X39724901Y-43169507D01*
X39817993Y-43262599D01*
X39932007Y-43328425D01*
X39995590Y-43345462D01*
X39249280Y-44091771D01*
X39240105Y-44135447D01*
X39203739Y-44177115D01*
X39147490Y-44217982D01*
X38980485Y-44384987D01*
X38980485Y-44384988D01*
X38980483Y-44384990D01*
X38920862Y-44467050D01*
X38841657Y-44576066D01*
X38734433Y-44786503D01*
X38661446Y-45011131D01*
X38624500Y-45244402D01*
X38624500Y-45480597D01*
X38661446Y-45713868D01*
X38734433Y-45938496D01*
X38841657Y-46148933D01*
X38980483Y-46340010D01*
X39147490Y-46507017D01*
X39338567Y-46645843D01*
X39437991Y-46696502D01*
X39549003Y-46753066D01*
X39549005Y-46753066D01*
X39549008Y-46753068D01*
X39669412Y-46792189D01*
X39773631Y-46826053D01*
X40006903Y-46863000D01*
X40006908Y-46863000D01*
X40243097Y-46863000D01*
X40476368Y-46826053D01*
X40700992Y-46753068D01*
X40911433Y-46645843D01*
X41102510Y-46507017D01*
X41269517Y-46340010D01*
X41408343Y-46148933D01*
X41515568Y-45938492D01*
X41588553Y-45713868D01*
X41602979Y-45622787D01*
X41625500Y-45480597D01*
X41625500Y-45244402D01*
X53124500Y-45244402D01*
X53124500Y-45480597D01*
X53161446Y-45713868D01*
X53234433Y-45938496D01*
X53341657Y-46148933D01*
X53480483Y-46340010D01*
X53647490Y-46507017D01*
X53838567Y-46645843D01*
X53937991Y-46696502D01*
X54049003Y-46753066D01*
X54049005Y-46753066D01*
X54049008Y-46753068D01*
X54169412Y-46792189D01*
X54273631Y-46826053D01*
X54506903Y-46863000D01*
X54506908Y-46863000D01*
X54743097Y-46863000D01*
X54976368Y-46826053D01*
X55200992Y-46753068D01*
X55411433Y-46645843D01*
X55602510Y-46507017D01*
X55769517Y-46340010D01*
X55908343Y-46148933D01*
X56015568Y-45938492D01*
X56088553Y-45713868D01*
X56102979Y-45622787D01*
X56125500Y-45480597D01*
X56125500Y-45244402D01*
X56088553Y-45011131D01*
X56015566Y-44786503D01*
X55959002Y-44675491D01*
X55908343Y-44576067D01*
X55769517Y-44384990D01*
X55602510Y-44217983D01*
X55411433Y-44079157D01*
X55200996Y-43971933D01*
X54976368Y-43898946D01*
X54743097Y-43862000D01*
X54743092Y-43862000D01*
X54506908Y-43862000D01*
X54506903Y-43862000D01*
X54273631Y-43898946D01*
X54049003Y-43971933D01*
X53838566Y-44079157D01*
X53729550Y-44158362D01*
X53647490Y-44217983D01*
X53647488Y-44217985D01*
X53647487Y-44217985D01*
X53480485Y-44384987D01*
X53480485Y-44384988D01*
X53480483Y-44384990D01*
X53420862Y-44467050D01*
X53341657Y-44576066D01*
X53234433Y-44786503D01*
X53161446Y-45011131D01*
X53124500Y-45244402D01*
X41625500Y-45244402D01*
X41588553Y-45011131D01*
X41515566Y-44786503D01*
X41459002Y-44675491D01*
X41408343Y-44576067D01*
X41269517Y-44384990D01*
X41102510Y-44217983D01*
X41046259Y-44177114D01*
X41003595Y-44121784D01*
X40998902Y-44089955D01*
X40254408Y-43345462D01*
X40317993Y-43328425D01*
X40432007Y-43262599D01*
X40525099Y-43169507D01*
X40590925Y-43055493D01*
X40607962Y-42991909D01*
X41347658Y-43731605D01*
X41347658Y-43731604D01*
X41407914Y-43648669D01*
X41407918Y-43648663D01*
X41515102Y-43438302D01*
X41588065Y-43213747D01*
X41625000Y-42980552D01*
X41625000Y-42744447D01*
X41588065Y-42511252D01*
X41515102Y-42286697D01*
X41407914Y-42076328D01*
X41338394Y-41980642D01*
X41314914Y-41914835D01*
X41330739Y-41846781D01*
X41364401Y-41808489D01*
X41367329Y-41806296D01*
X41367331Y-41806296D01*
X41482546Y-41720046D01*
X41568796Y-41604831D01*
X41619091Y-41469983D01*
X41625500Y-41410373D01*
X41625499Y-40244402D01*
X53124500Y-40244402D01*
X53124500Y-40480597D01*
X53161446Y-40713868D01*
X53234433Y-40938496D01*
X53333764Y-41133442D01*
X53341657Y-41148933D01*
X53480483Y-41340010D01*
X53647490Y-41507017D01*
X53838567Y-41645843D01*
X53937991Y-41696502D01*
X54049003Y-41753066D01*
X54049005Y-41753066D01*
X54049008Y-41753068D01*
X54169412Y-41792189D01*
X54273631Y-41826053D01*
X54506903Y-41863000D01*
X54506908Y-41863000D01*
X54743097Y-41863000D01*
X54976368Y-41826053D01*
X55030424Y-41808489D01*
X55200992Y-41753068D01*
X55411433Y-41645843D01*
X55602510Y-41507017D01*
X55769517Y-41340010D01*
X55908343Y-41148933D01*
X56015568Y-40938492D01*
X56088553Y-40713868D01*
X56125500Y-40480597D01*
X56125500Y-40244402D01*
X56088553Y-40011131D01*
X56046589Y-39881980D01*
X56015568Y-39786508D01*
X56015566Y-39786505D01*
X56015566Y-39786503D01*
X55908342Y-39576066D01*
X55769517Y-39384990D01*
X55602510Y-39217983D01*
X55411433Y-39079157D01*
X55200996Y-38971933D01*
X54976368Y-38898946D01*
X54743097Y-38862000D01*
X54743092Y-38862000D01*
X54506908Y-38862000D01*
X54506903Y-38862000D01*
X54273631Y-38898946D01*
X54049003Y-38971933D01*
X53838566Y-39079157D01*
X53782119Y-39120169D01*
X53647490Y-39217983D01*
X53647488Y-39217985D01*
X53647487Y-39217985D01*
X53480485Y-39384987D01*
X53480485Y-39384988D01*
X53480483Y-39384990D01*
X53420862Y-39467050D01*
X53341657Y-39576066D01*
X53234433Y-39786503D01*
X53161446Y-40011131D01*
X53124500Y-40244402D01*
X41625499Y-40244402D01*
X41625499Y-39314628D01*
X41619091Y-39255017D01*
X41605278Y-39217983D01*
X41568797Y-39120171D01*
X41568793Y-39120164D01*
X41482547Y-39004955D01*
X41482544Y-39004952D01*
X41367335Y-38918706D01*
X41367328Y-38918702D01*
X41232482Y-38868408D01*
X41232483Y-38868408D01*
X41172883Y-38862001D01*
X41172881Y-38862000D01*
X41172873Y-38862000D01*
X41172864Y-38862000D01*
X39077129Y-38862000D01*
X39077123Y-38862001D01*
X39017516Y-38868408D01*
X38882671Y-38918702D01*
X38882664Y-38918706D01*
X38767455Y-39004952D01*
X38767452Y-39004955D01*
X38681206Y-39120164D01*
X38681202Y-39120171D01*
X38630908Y-39255017D01*
X38624501Y-39314616D01*
X38624501Y-39314623D01*
X38624500Y-39314635D01*
X38624500Y-39638000D01*
X38604815Y-39705039D01*
X38552011Y-39750794D01*
X38500500Y-39762000D01*
X37792806Y-39762000D01*
X37634692Y-39762000D01*
X37481964Y-39802923D01*
X37481963Y-39802923D01*
X37481961Y-39802924D01*
X37481958Y-39802925D01*
X37431845Y-39831859D01*
X37431844Y-39831860D01*
X37388438Y-39856920D01*
X37345034Y-39881979D01*
X37345031Y-39881981D01*
X36383232Y-40843780D01*
X36383230Y-40843782D01*
X36383230Y-40843783D01*
X36338027Y-40922077D01*
X36338026Y-40922077D01*
X36304174Y-40980711D01*
X36304173Y-40980712D01*
X36289496Y-41035489D01*
X36263249Y-41133442D01*
X36263249Y-41133444D01*
X36263249Y-41301545D01*
X36263250Y-41301558D01*
X36263250Y-44532733D01*
X36243565Y-44599772D01*
X36242352Y-44601624D01*
X36154359Y-44733313D01*
X36154352Y-44733326D01*
X36094014Y-44878997D01*
X36094011Y-44879009D01*
X36063250Y-45033652D01*
X29075500Y-45033652D01*
X29075500Y-35977242D01*
X29095185Y-35910203D01*
X29147989Y-35864448D01*
X29217147Y-35854504D01*
X29280703Y-35883529D01*
X29309985Y-35920947D01*
X29324951Y-35950320D01*
X29449890Y-36122286D01*
X29600213Y-36272609D01*
X29772179Y-36397548D01*
X29772181Y-36397549D01*
X29772184Y-36397551D01*
X29961588Y-36494057D01*
X30163757Y-36559746D01*
X30373713Y-36593000D01*
X30373714Y-36593000D01*
X30586286Y-36593000D01*
X30586287Y-36593000D01*
X30796243Y-36559746D01*
X30998412Y-36494057D01*
X31187816Y-36397551D01*
X31209789Y-36381586D01*
X31359786Y-36272609D01*
X31359788Y-36272606D01*
X31359792Y-36272604D01*
X31417761Y-36214635D01*
X45524500Y-36214635D01*
X45524500Y-38310370D01*
X45524501Y-38310376D01*
X45530908Y-38369983D01*
X45581202Y-38504828D01*
X45581206Y-38504835D01*
X45667452Y-38620044D01*
X45667455Y-38620047D01*
X45782664Y-38706293D01*
X45782671Y-38706297D01*
X45917517Y-38756591D01*
X45917516Y-38756591D01*
X45924444Y-38757335D01*
X45977127Y-38763000D01*
X49272872Y-38762999D01*
X49332483Y-38756591D01*
X49467331Y-38706296D01*
X49582546Y-38620046D01*
X49668796Y-38504831D01*
X49719091Y-38369983D01*
X49725500Y-38310373D01*
X49725499Y-36214628D01*
X49719091Y-36155017D01*
X49706885Y-36122292D01*
X49668797Y-36020171D01*
X49668793Y-36020164D01*
X49582547Y-35904955D01*
X49582544Y-35904952D01*
X49467335Y-35818706D01*
X49467328Y-35818702D01*
X49332482Y-35768408D01*
X49332483Y-35768408D01*
X49272883Y-35762001D01*
X49272881Y-35762000D01*
X49272873Y-35762000D01*
X49272864Y-35762000D01*
X45977129Y-35762000D01*
X45977123Y-35762001D01*
X45917516Y-35768408D01*
X45782671Y-35818702D01*
X45782664Y-35818706D01*
X45667455Y-35904952D01*
X45667452Y-35904955D01*
X45581206Y-36020164D01*
X45581202Y-36020171D01*
X45530908Y-36155017D01*
X45524501Y-36214616D01*
X45524501Y-36214623D01*
X45524500Y-36214635D01*
X31417761Y-36214635D01*
X31510104Y-36122292D01*
X31510106Y-36122288D01*
X31510109Y-36122286D01*
X31635048Y-35950320D01*
X31635047Y-35950320D01*
X31635051Y-35950316D01*
X31731557Y-35760912D01*
X31797246Y-35558743D01*
X31830500Y-35348787D01*
X31830500Y-35136213D01*
X31797246Y-34926257D01*
X31731557Y-34724088D01*
X31635051Y-34534684D01*
X31635049Y-34534681D01*
X31635048Y-34534679D01*
X31510109Y-34362713D01*
X31359786Y-34212390D01*
X31187820Y-34087451D01*
X31183620Y-34085311D01*
X31158446Y-34072484D01*
X31107651Y-34024511D01*
X31090856Y-33956690D01*
X31113393Y-33890555D01*
X31168108Y-33847103D01*
X31214742Y-33838000D01*
X54510258Y-33838000D01*
X54577297Y-33857685D01*
G37*
%TD.AperFunction*%
%TD*%
M02*
