%TF.GenerationSoftware,KiCad,Pcbnew,10.0.3*%
%TF.CreationDate,2026-08-03T23:11:29+09:00*%
%TF.ProjectId,knob,6b6e6f62-2e6b-4696-9361-645f70636258,rev?*%
%TF.SameCoordinates,Original*%
%TF.FileFunction,Legend,Bot*%
%TF.FilePolarity,Positive*%
%FSLAX46Y46*%
G04 Gerber Fmt 4.6, Leading zero omitted, Abs format (unit mm)*
G04 Created by KiCad (PCBNEW 10.0.3) date 2026-08-03 23:11:29*
%MOMM*%
%LPD*%
G01*
G04 APERTURE LIST*
G04 Aperture macros list*
%AMRoundRect*
0 Rectangle with rounded corners*
0 $1 Rounding radius*
0 $2 $3 $4 $5 $6 $7 $8 $9 X,Y pos of 4 corners*
0 Add a 4 corners polygon primitive as box body*
4,1,4,$2,$3,$4,$5,$6,$7,$8,$9,$2,$3,0*
0 Add four circle primitives for the rounded corners*
1,1,$1+$1,$2,$3*
1,1,$1+$1,$4,$5*
1,1,$1+$1,$6,$7*
1,1,$1+$1,$8,$9*
0 Add four rect primitives between the rounded corners*
20,1,$1+$1,$2,$3,$4,$5,0*
20,1,$1+$1,$4,$5,$6,$7,0*
20,1,$1+$1,$6,$7,$8,$9,0*
20,1,$1+$1,$8,$9,$2,$3,0*%
G04 Aperture macros list end*
%ADD10C,0.150000*%
%ADD11C,0.120000*%
%ADD12C,2.200000*%
%ADD13R,2.000000X2.000000*%
%ADD14C,2.000000*%
%ADD15R,3.200000X2.000000*%
%ADD16RoundRect,0.225000X-0.225000X-0.375000X0.225000X-0.375000X0.225000X0.375000X-0.225000X0.375000X0*%
%ADD17R,1.300000X0.300000*%
%ADD18R,2.200000X1.800000*%
G04 APERTURE END LIST*
D10*
X42414285Y-37792319D02*
X42414285Y-36792319D01*
X42414285Y-36792319D02*
X42176190Y-36792319D01*
X42176190Y-36792319D02*
X42033333Y-36839938D01*
X42033333Y-36839938D02*
X41938095Y-36935176D01*
X41938095Y-36935176D02*
X41890476Y-37030414D01*
X41890476Y-37030414D02*
X41842857Y-37220890D01*
X41842857Y-37220890D02*
X41842857Y-37363747D01*
X41842857Y-37363747D02*
X41890476Y-37554223D01*
X41890476Y-37554223D02*
X41938095Y-37649461D01*
X41938095Y-37649461D02*
X42033333Y-37744700D01*
X42033333Y-37744700D02*
X42176190Y-37792319D01*
X42176190Y-37792319D02*
X42414285Y-37792319D01*
X40985714Y-37125652D02*
X40985714Y-37792319D01*
X41223809Y-36744700D02*
X41461904Y-37458985D01*
X41461904Y-37458985D02*
X40842857Y-37458985D01*
X40557142Y-36792319D02*
X39890476Y-36792319D01*
X39890476Y-36792319D02*
X40319047Y-37792319D01*
X36968571Y-42529166D02*
X37682856Y-42529166D01*
X37682856Y-42529166D02*
X37825713Y-42481547D01*
X37825713Y-42481547D02*
X37920952Y-42386309D01*
X37920952Y-42386309D02*
X37968571Y-42243452D01*
X37968571Y-42243452D02*
X37968571Y-42148214D01*
X37968571Y-43529166D02*
X37968571Y-42957738D01*
X37968571Y-43243452D02*
X36968571Y-43243452D01*
X36968571Y-43243452D02*
X37111428Y-43148214D01*
X37111428Y-43148214D02*
X37206666Y-43052976D01*
X37206666Y-43052976D02*
X37254285Y-42957738D01*
%TO.C,D47*%
D11*
X38840000Y-34337500D02*
X42850000Y-34337500D01*
X38840000Y-36337500D02*
X38840000Y-34337500D01*
X38840000Y-36337500D02*
X42850000Y-36337500D01*
%TO.C,J1*%
X29313750Y-39712500D02*
X31053750Y-39712500D01*
X29313750Y-46012500D02*
X29313750Y-39712500D01*
X31053750Y-46012500D02*
X29313750Y-46012500D01*
X35113750Y-39712499D02*
X33773750Y-39712500D01*
X35113750Y-44522499D02*
X35113753Y-46012500D01*
X35113750Y-44522499D02*
X36313750Y-44522500D01*
X35113751Y-41202499D02*
X35113750Y-39712499D01*
X35113753Y-46012500D02*
X33773750Y-46012500D01*
%TD*%
%LPC*%
D12*
%TO.C,H3*%
X30480000Y-50482500D03*
%TD*%
%TO.C,H1*%
X55245000Y-35242500D03*
%TD*%
%TO.C,H4*%
X30480000Y-35242500D03*
%TD*%
D13*
%TO.C,SW47*%
X40125000Y-40362500D03*
D14*
X40125000Y-45362500D03*
X40125000Y-42862500D03*
D15*
X47625000Y-37262500D03*
X47625000Y-48462500D03*
D14*
X54625000Y-45362500D03*
X54625000Y-40362500D03*
%TD*%
D12*
%TO.C,H2*%
X55245000Y-50482500D03*
%TD*%
D16*
%TO.C,D47*%
X39549999Y-35337500D03*
X42850001Y-35337500D03*
%TD*%
D17*
%TO.C,J1*%
X35663750Y-44112500D03*
X35663750Y-43612499D03*
X35663751Y-43112498D03*
X35663751Y-42612500D03*
X35663749Y-42112500D03*
X35663750Y-41612500D03*
D18*
X32413748Y-46012500D03*
X32413748Y-39712500D03*
%TD*%
%LPD*%
M02*
