M48
; DRILL file KiCad 10.0.3 date 2026-08-03T23:20:43
; FORMAT={-:-/ absolute / inch / decimal}
; #@! TF.CreationDate,2026-08-03T23:20:43+09:00
; #@! TF.GenerationSoftware,Kicad,Pcbnew,10.0.3
; #@! TF.FileFunction,NonPlated,1,2,NPTH
FMAT,2
INCH
; #@! TA.AperFunction,NonPlated,NPTH,ComponentDrill
T1C0.0689
; #@! TA.AperFunction,NonPlated,NPTH,ComponentDrill
T2C0.1570
%
G90
G05
T1
X1.3246Y-1.3269
X1.3246Y-2.0769
X1.3246Y-2.8269
X1.3246Y-3.7644
X1.7246Y-1.3269
X1.7246Y-2.0769
X1.7246Y-2.8269
X1.7246Y-3.7644
X2.0746Y-1.3269
X2.0746Y-2.0769
X2.0746Y-2.8269
X2.0746Y-3.7644
X2.4746Y-1.3269
X2.4746Y-2.0769
X2.4746Y-2.8269
X2.4746Y-3.7644
X2.8246Y-1.3269
X2.8246Y-2.0769
X2.8246Y-2.8269
X2.8246Y-3.7644
X3.2246Y-1.3269
X3.2246Y-2.0769
X3.2246Y-2.8269
X3.2246Y-3.7644
X3.5746Y-1.3269
X3.5746Y-2.0769
X3.5746Y-2.8269
X3.7746Y-3.5644
X3.7746Y-3.9644
X3.9746Y-1.3269
X3.9746Y-2.0769
X3.9746Y-2.8269
X4.3246Y-1.3269
X4.3246Y-2.0769
X4.3246Y-2.8269
X4.5246Y-3.5644
X4.5246Y-3.9644
X4.7246Y-1.3269
X4.7246Y-2.0769
X4.7246Y-2.8269
X5.0746Y-1.3269
X5.0746Y-2.0769
X5.0746Y-2.8269
X5.4496Y-3.7644
X5.4746Y-1.3269
X5.4746Y-2.0769
X5.4746Y-2.8269
X5.8246Y-1.3269
X5.8246Y-2.0769
X5.8246Y-2.8269
X5.8496Y-3.7644
X6.2246Y-1.3269
X6.2246Y-2.0769
X6.2246Y-2.8269
X6.5746Y-1.3269
X6.5746Y-2.0769
X6.5746Y-2.8269
X6.5746Y-3.7644
X6.9746Y-1.3269
X6.9746Y-2.0769
X6.9746Y-2.8269
X6.9746Y-3.7644
X7.3246Y-1.3269
X7.3246Y-2.0769
X7.3246Y-2.8269
X7.3246Y-3.7644
X7.7246Y-1.3269
X7.7246Y-2.0769
X7.7246Y-2.8269
X7.7246Y-3.7644
X8.0746Y-1.3269
X8.0746Y-2.0769
X8.0746Y-2.8269
X8.0746Y-3.7644
X8.4746Y-1.3269
X8.4746Y-2.0769
X8.4746Y-2.8269
X8.4746Y-3.7644
X8.8246Y-1.3269
X8.8246Y-2.0769
X8.8246Y-2.8269
X9.2246Y-1.3269
X9.2246Y-2.0769
X9.2246Y-2.8269
X9.5727Y-3.7667
X9.5746Y-2.0769
X9.5746Y-2.8269
X9.9727Y-3.7667
X9.9746Y-2.0769
X9.9746Y-2.8269
T2
X1.5246Y-1.3269
X1.5246Y-2.0769
X1.5246Y-2.8269
X1.5246Y-3.7644
X2.2746Y-1.3269
X2.2746Y-2.0769
X2.2746Y-2.8269
X2.2746Y-3.7644
X3.0246Y-1.3269
X3.0246Y-2.0769
X3.0246Y-2.8269
X3.0246Y-3.7644
X3.7746Y-1.3269
X3.7746Y-2.0769
X3.7746Y-2.8269
X3.7746Y-3.7644
X4.5246Y-1.3269
X4.5246Y-2.0769
X4.5246Y-2.8269
X4.5246Y-3.7644
X5.1809Y-3.4394
X5.2746Y-1.3269
X5.2746Y-2.0769
X5.2746Y-2.8269
X5.6496Y-3.7644
X6.0246Y-1.3269
X6.0246Y-2.0769
X6.0246Y-2.8269
X6.1184Y-3.4394
X6.7746Y-1.3269
X6.7746Y-2.0769
X6.7746Y-2.8269
X6.7746Y-3.7644
X7.5246Y-1.3269
X7.5246Y-2.0769
X7.5246Y-2.8269
X7.5246Y-3.7644
X8.2746Y-1.3269
X8.2746Y-2.0769
X8.2746Y-2.8269
X8.2746Y-3.7644
X9.0246Y-1.3269
X9.0246Y-2.0769
X9.0246Y-2.8269
X9.7727Y-3.7667
X9.7746Y-2.0769
X9.7746Y-2.8269
M30
