%TF.GenerationSoftware,KiCad,Pcbnew,10.0.3*%
%TF.CreationDate,2026-08-03T23:20:43+09:00*%
%TF.ProjectId,pcb,7063622e-6b69-4636-9164-5f7063625858,rev?*%
%TF.SameCoordinates,Original*%
%TF.FileFunction,Soldermask,Top*%
%TF.FilePolarity,Negative*%
%FSLAX46Y46*%
G04 Gerber Fmt 4.6, Leading zero omitted, Abs format (unit mm)*
G04 Created by KiCad (PCBNEW 10.0.3) date 2026-08-03 23:20:43*
%MOMM*%
%LPD*%
G01*
G04 APERTURE LIST*
%ADD10C,3.300000*%
G04 APERTURE END LIST*
D10*
%TO.C,MX4*%
X92065000Y-31163750D03*
X98415000Y-28623750D03*
%TD*%
%TO.C,MX42*%
X168265000Y-93076250D03*
X174615000Y-90536250D03*
%TD*%
%TO.C,MX13*%
X53965000Y-50213750D03*
X60315000Y-47673750D03*
%TD*%
%TO.C,MX11*%
X225415000Y-31163750D03*
X231765000Y-28623750D03*
%TD*%
%TO.C,MX26*%
X73015000Y-69263750D03*
X79365000Y-66723750D03*
%TD*%
%TO.C,MX39*%
X93335000Y-99426250D03*
X90794999Y-93076248D03*
%TD*%
%TO.C,MX41*%
X139690000Y-93076250D03*
X146040000Y-90536250D03*
%TD*%
%TO.C,MX15*%
X92065000Y-50213750D03*
X98415000Y-47673750D03*
%TD*%
%TO.C,MX14*%
X73015000Y-50213750D03*
X79365000Y-47673750D03*
%TD*%
%TO.C,MX34*%
X225415000Y-69263750D03*
X231765000Y-66723750D03*
%TD*%
%TO.C,MX24*%
X34915000Y-69263750D03*
X41265000Y-66723750D03*
%TD*%
%TO.C,MX22*%
X225415000Y-50213750D03*
X231765000Y-47673750D03*
%TD*%
%TO.C,MX31*%
X168265000Y-69263750D03*
X174615000Y-66723750D03*
%TD*%
%TO.C,MX1*%
X34915000Y-31163750D03*
X41265003Y-28623750D03*
%TD*%
%TO.C,MX10*%
X206365000Y-31163750D03*
X212715000Y-28623750D03*
%TD*%
%TO.C,MX30*%
X149215000Y-69263750D03*
X155565000Y-66723750D03*
%TD*%
%TO.C,MX44*%
X206365000Y-93076250D03*
X212715000Y-90536250D03*
%TD*%
%TO.C,MX23*%
X244465000Y-50213750D03*
X250815000Y-47673750D03*
%TD*%
%TO.C,MX40*%
X117465000Y-91806250D03*
X120004998Y-98156250D03*
%TD*%
%TO.C,MX8*%
X168265000Y-31163750D03*
X174615000Y-28623750D03*
%TD*%
%TO.C,MX3*%
X73015000Y-31163750D03*
X79365000Y-28623750D03*
%TD*%
%TO.C,MX21*%
X206365000Y-50213750D03*
X212715000Y-47673750D03*
%TD*%
%TO.C,MX43*%
X187315000Y-93076250D03*
X193665000Y-90536250D03*
%TD*%
%TO.C,MX12*%
X34915000Y-50213750D03*
X41265000Y-47673750D03*
%TD*%
%TO.C,MX2*%
X53965000Y-31163750D03*
X60315000Y-28623750D03*
%TD*%
%TO.C,MX45*%
X252037275Y-98214975D03*
X245687272Y-100754975D03*
%TD*%
%TO.C,MX27*%
X92065000Y-69263750D03*
X98415000Y-66723750D03*
%TD*%
%TO.C,MX33*%
X206365000Y-69263750D03*
X212715000Y-66723750D03*
%TD*%
%TO.C,MX19*%
X168265000Y-50213750D03*
X174615000Y-47673750D03*
%TD*%
%TO.C,MX16*%
X111115000Y-50213750D03*
X117465000Y-47673750D03*
%TD*%
%TO.C,MX32*%
X187315000Y-69263750D03*
X193665000Y-66723750D03*
%TD*%
%TO.C,MX7*%
X149215000Y-31163750D03*
X155565000Y-28623750D03*
%TD*%
%TO.C,MX37*%
X53965000Y-93076250D03*
X60315000Y-90536250D03*
%TD*%
%TO.C,MX38*%
X73015000Y-93076250D03*
X79365000Y-90536250D03*
%TD*%
%TO.C,MX35*%
X244465000Y-69263750D03*
X250815000Y-66723750D03*
%TD*%
%TO.C,MX18*%
X149215000Y-50213750D03*
X155565000Y-47673750D03*
%TD*%
%TO.C,MX17*%
X130165000Y-50213750D03*
X136515000Y-47673750D03*
%TD*%
%TO.C,MX25*%
X53965000Y-69263750D03*
X60315000Y-66723750D03*
%TD*%
%TO.C,MX28*%
X111115000Y-69263750D03*
X117465000Y-66723750D03*
%TD*%
%TO.C,MX6*%
X130165000Y-31163750D03*
X136515000Y-28623750D03*
%TD*%
%TO.C,MX5*%
X111115000Y-31163750D03*
X117465000Y-28623750D03*
%TD*%
%TO.C,MX9*%
X187315000Y-31163750D03*
X193665000Y-28623750D03*
%TD*%
%TO.C,MX36*%
X34915000Y-93076250D03*
X41265000Y-90536250D03*
%TD*%
%TO.C,MX20*%
X187315000Y-50213750D03*
X193665000Y-47673750D03*
%TD*%
%TO.C,MX29*%
X130165000Y-69263750D03*
X136515000Y-66723750D03*
%TD*%
M02*
