M48
; DRILL file KiCad 10.0.3 date 2026-08-03T23:20:43
; FORMAT={-:-/ absolute / inch / decimal}
; #@! TF.CreationDate,2026-08-03T23:20:43+09:00
; #@! TF.GenerationSoftware,Kicad,Pcbnew,10.0.3
; #@! TF.FileFunction,Plated,1,2,PTH
FMAT,2
INCH
; #@! TA.AperFunction,Plated,PTH,ViaDrill
T1C0.0118
; #@! TA.AperFunction,Plated,PTH,ComponentDrill
T2C0.0138
; #@! TA.AperFunction,Plated,PTH,ViaDrill
T3C0.0157
; #@! TA.AperFunction,Plated,PTH,ComponentDrill
T4C0.1181
; #@! TA.AperFunction,Plated,PTH,ComponentDrill
T5C0.1200
%
G90
G05
T1
X1.2348Y-3.5519
X1.2348Y-1.3207
X1.2348Y-1.734
X1.2348Y-1.8832
X1.2348Y-2.6332
X1.9848Y-3.5519
X1.9848Y-1.3207
X1.9848Y-1.7183
X1.9848Y-1.8832
X1.9848Y-2.6332
X2.7348Y-1.3207
X2.7348Y-1.7025
X2.7348Y-1.8832
X2.7348Y-2.6332
X2.7348Y-3.5707
X3.3661Y-3.0079
X3.3898Y-3.0354
X3.3898Y-3.0866
X3.4213Y-3.0866
X3.4848Y-1.3207
X3.4848Y-1.6868
X3.4848Y-1.8832
X3.4848Y-2.6332
X3.4848Y-4.0542
X3.8146Y-3.4879
X3.8941Y-3.4486
X4.0088Y-3.2443
X4.2348Y-1.3167
X4.2348Y-1.6706
X4.2348Y-1.8792
X4.2348Y-2.6292
X4.2883Y-3.2443
X4.3513Y-3.4333
X4.3937Y-3.4463
X4.3996Y-3.3979
X4.5309Y-3.4747
X4.8624Y-3.4333
X4.9848Y-1.3207
X4.9848Y-1.6553
X4.9848Y-1.8832
X4.9848Y-2.6332
X5.3598Y-3.5707
X5.6339Y-2.3702
X5.6339Y-2.4647
X5.6654Y-2.3702
X5.6654Y-2.4647
X5.7348Y-2.8207
X5.7348Y-3.2497
X5.7348Y-1.3207
X5.7348Y-1.8832
X5.7913Y-2.4922
X6.3618Y-3.7673
X6.3736Y-3.0606
X6.3933Y-2.3106
X6.4012Y-3.7673
X6.4051Y-1.5606
X6.4297Y-3.23
X6.4406Y-3.7673
X6.4848Y-2.0707
X6.4848Y-1.3207
X6.4848Y-2.8207
X6.4848Y-3.23
X6.4848Y-3.5707
X7.2348Y-1.3207
X7.2348Y-1.8832
X7.2348Y-2.8207
X7.2348Y-3.7582
X7.2348Y-3.955
X7.9848Y-3.9777
X7.9848Y-1.3207
X7.9848Y-2.0707
X7.9848Y-2.8207
X7.9848Y-3.7769
X8.4104Y-3.2036
X8.4435Y-3.4332
X8.4783Y-3.3336
X8.4851Y-3.9386
X8.5459Y-4.0305
X8.5563Y-3.1827
X8.5563Y-3.2182
X8.5563Y-3.2536
X8.557Y-3.3218
X8.5783Y-3.0606
X8.5816Y-3.9716
X8.5816Y-4.0188
X8.6325Y-4.0425
X8.6603Y-3.2848
X8.6886Y-3.0606
X8.699Y-3.726
X8.699Y-3.7654
X8.7155Y-3.2848
X8.7249Y-3.5607
X8.7249Y-3.6315
X8.7348Y-1.3207
X8.7348Y-2.0707
X8.7348Y-2.8207
X8.7446Y-3.793
X8.804Y-3.9741
X8.8115Y-3.6315
X8.8188Y-4.0955
X8.8248Y-3.2524
X8.8632Y-3.7034
X8.9452Y-3.8679
X8.9879Y-3.6709
X9.0481Y-3.978
X9.0509Y-3.319
X9.0906Y-3.2436
X9.1222Y-3.6714
X9.1501Y-3.9465
X9.1555Y-3.2657
X9.1555Y-3.5255
X9.1768Y-2.3106
X9.2081Y-3.0606
X9.2292Y-4.1093
X9.2555Y-3.25
X9.2565Y-3.9344
X9.2568Y-3.9701
X9.2607Y-2.4504
X9.2795Y-4.0955
X9.2919Y-3.9344
X9.3055Y-3.2278
X9.3161Y-3.8599
X9.3161Y-3.8953
X9.3228Y-4.0955
X9.3277Y-3.5646
X9.3431Y-4.0646
X9.3513Y-3.6237
X9.3618Y-3.4681
X9.4146Y-3.7615
X9.432Y-3.8732
X9.4382Y-3.7851
X9.4524Y-2.3106
X9.4655Y-1.8008
X9.4848Y-2.8207
X9.4848Y-3.7039
X9.4848Y-2.0707
X9.4851Y-2.9308
X9.5166Y-3.5252
X9.5186Y-3.6645
X9.5193Y-3.2476
X9.5422Y-3.5919
X9.5422Y-3.6352
X9.5428Y-3.0606
X9.5442Y-3.1591
X9.5954Y-3.6119
X9.8198Y-4.0646
X9.9081Y-3.6039
X9.993Y-3.6709
T2
X8.9928Y-3.8195
X8.9928Y-3.7191
X8.9928Y-3.7693
X9.043Y-3.7191
X9.043Y-3.7693
X9.043Y-3.8195
X9.0932Y-3.7693
X9.0932Y-3.8195
X9.0932Y-3.7191
T3
X3.8141Y-3.6537
X3.8538Y-3.8938
X4.3513Y-3.39
X4.4891Y-3.2837
T4
X1.3746Y-1.2269
X1.3746Y-1.9769
X1.3746Y-2.7269
X1.3746Y-3.6644
X1.6246Y-1.8769
X1.6246Y-2.6269
X1.6246Y-3.5644
X1.6246Y-1.1269
X2.1246Y-1.2269
X2.1246Y-1.9769
X2.1246Y-2.7269
X2.1246Y-3.6644
X2.3746Y-1.1269
X2.3746Y-1.8769
X2.3746Y-2.6269
X2.3746Y-3.5644
X2.8746Y-1.2269
X2.8746Y-1.9769
X2.8746Y-2.7269
X2.8746Y-3.6644
X3.1246Y-1.1269
X3.1246Y-1.8769
X3.1246Y-2.6269
X3.1246Y-3.5644
X3.5746Y-3.6644
X3.6246Y-1.2269
X3.6246Y-1.9769
X3.6246Y-2.7269
X3.6746Y-3.9144
X3.8746Y-1.1269
X3.8746Y-1.8769
X3.8746Y-2.6269
X4.3746Y-1.2269
X4.3746Y-1.9769
X4.3746Y-2.7269
X4.6246Y-1.1269
X4.6246Y-1.8769
X4.6246Y-2.6269
X4.6246Y-3.6144
X4.7246Y-3.8644
X5.1246Y-1.2269
X5.1246Y-1.9769
X5.1246Y-2.7269
X5.3746Y-1.1269
X5.3746Y-1.8769
X5.3746Y-2.6269
X5.4996Y-3.6644
X5.7496Y-3.5644
X5.8746Y-1.2269
X5.8746Y-1.9769
X5.8746Y-2.7269
X6.1246Y-1.1269
X6.1246Y-1.8769
X6.1246Y-2.6269
X6.6246Y-1.2269
X6.6246Y-1.9769
X6.6246Y-2.7269
X6.6246Y-3.6644
X6.8746Y-1.1269
X6.8746Y-1.8769
X6.8746Y-2.6269
X6.8746Y-3.5644
X7.3746Y-1.2269
X7.3746Y-1.9769
X7.3746Y-2.7269
X7.3746Y-3.6644
X7.6246Y-1.1269
X7.6246Y-1.8769
X7.6246Y-2.6269
X7.6246Y-3.5644
X8.1246Y-1.2269
X8.1246Y-1.9769
X8.1246Y-2.7269
X8.1246Y-3.6644
X8.3746Y-1.1269
X8.3746Y-1.8769
X8.3746Y-2.6269
X8.3746Y-3.5644
X8.8746Y-1.2269
X8.8746Y-1.9769
X8.8746Y-2.7269
X9.1246Y-1.1269
X9.1246Y-1.8769
X9.1246Y-2.6269
X9.6246Y-1.9769
X9.6246Y-2.7269
X9.6727Y-3.9667
X9.8746Y-1.8769
X9.8746Y-2.6269
X9.9227Y-3.8667
T5
X5.1809Y-4.0394
X6.1184Y-4.0394
M30
