%TF.GenerationSoftware,KiCad,Pcbnew,10.0.3*%
%TF.CreationDate,2026-08-03T23:20:43+09:00*%
%TF.ProjectId,pcb,7063622e-6b69-4636-9164-5f7063625858,rev?*%
%TF.SameCoordinates,Original*%
%TF.FileFunction,Soldermask,Bot*%
%TF.FilePolarity,Negative*%
%FSLAX46Y46*%
G04 Gerber Fmt 4.6, Leading zero omitted, Abs format (unit mm)*
G04 Created by KiCad (PCBNEW 10.0.3) date 2026-08-03 23:20:43*
%MOMM*%
%LPD*%
G01*
G04 APERTURE LIST*
G04 Aperture macros list*
%AMRoundRect*
0 Rectangle with rounded corners*
0 $1 Rounding radius*
0 $2 $3 $4 $5 $6 $7 $8 $9 X,Y pos of 4 corners*
0 Add a 4 corners polygon primitive as box body*
4,1,4,$2,$3,$4,$5,$6,$7,$8,$9,$2,$3,0*
0 Add four circle primitives for the rounded corners*
1,1,$1+$1,$2,$3*
1,1,$1+$1,$4,$5*
1,1,$1+$1,$6,$7*
1,1,$1+$1,$8,$9*
0 Add four rect primitives between the rounded corners*
20,1,$1+$1,$2,$3,$4,$5,0*
20,1,$1+$1,$4,$5,$6,$7,0*
20,1,$1+$1,$6,$7,$8,$9,0*
20,1,$1+$1,$8,$9,$2,$3,0*%
%AMOutline5P*
0 Free polygon, 5 corners , with rotation*
0 The origin of the aperture is its center*
0 number of corners: always 5*
0 $1 to $10 corner X, Y*
0 $11 Rotation angle, in degrees counterclockwise*
0 create outline with 5 corners*
4,1,5,$1,$2,$3,$4,$5,$6,$7,$8,$9,$10,$1,$2,$11*%
%AMOutline6P*
0 Free polygon, 6 corners , with rotation*
0 The origin of the aperture is its center*
0 number of corners: always 6*
0 $1 to $12 corner X, Y*
0 $13 Rotation angle, in degrees counterclockwise*
0 create outline with 6 corners*
4,1,6,$1,$2,$3,$4,$5,$6,$7,$8,$9,$10,$11,$12,$1,$2,$13*%
%AMOutline7P*
0 Free polygon, 7 corners , with rotation*
0 The origin of the aperture is its center*
0 number of corners: always 7*
0 $1 to $14 corner X, Y*
0 $15 Rotation angle, in degrees counterclockwise*
0 create outline with 7 corners*
4,1,7,$1,$2,$3,$4,$5,$6,$7,$8,$9,$10,$11,$12,$13,$14,$1,$2,$15*%
%AMOutline8P*
0 Free polygon, 8 corners , with rotation*
0 The origin of the aperture is its center*
0 number of corners: always 8*
0 $1 to $16 corner X, Y*
0 $17 Rotation angle, in degrees counterclockwise*
0 create outline with 8 corners*
4,1,8,$1,$2,$3,$4,$5,$6,$7,$8,$9,$10,$11,$12,$13,$14,$15,$16,$1,$2,$17*%
G04 Aperture macros list end*
%ADD10C,4.000000*%
%ADD11C,3.987800*%
%ADD12RoundRect,0.140000X0.170000X-0.140000X0.170000X0.140000X-0.170000X0.140000X-0.170000X-0.140000X0*%
%ADD13C,1.750000*%
%ADD14C,3.300000*%
%ADD15RoundRect,0.250000X1.025000X1.000000X-1.025000X1.000000X-1.025000X-1.000000X1.025000X-1.000000X0*%
%ADD16RoundRect,0.225000X0.375000X-0.225000X0.375000X0.225000X-0.375000X0.225000X-0.375000X-0.225000X0*%
%ADD17RoundRect,0.140000X-0.140000X-0.170000X0.140000X-0.170000X0.140000X0.170000X-0.140000X0.170000X0*%
%ADD18RoundRect,0.140000X-0.170000X0.140000X-0.170000X-0.140000X0.170000X-0.140000X0.170000X0.140000X0*%
%ADD19RoundRect,0.140000X0.140000X0.170000X-0.140000X0.170000X-0.140000X-0.170000X0.140000X-0.170000X0*%
%ADD20RoundRect,0.250000X-1.000000X1.025000X-1.000000X-1.025000X1.000000X-1.025000X1.000000X1.025000X0*%
%ADD21RoundRect,0.225000X-0.225000X-0.375000X0.225000X-0.375000X0.225000X0.375000X-0.225000X0.375000X0*%
%ADD22RoundRect,0.225000X-0.375000X0.225000X-0.375000X-0.225000X0.375000X-0.225000X0.375000X0.225000X0*%
%ADD23RoundRect,0.162500X0.162500X-0.650000X0.162500X0.650000X-0.162500X0.650000X-0.162500X-0.650000X0*%
%ADD24RoundRect,0.225000X0.225000X0.375000X-0.225000X0.375000X-0.225000X-0.375000X0.225000X-0.375000X0*%
%ADD25RoundRect,0.135000X0.135000X0.185000X-0.135000X0.185000X-0.135000X-0.185000X0.135000X-0.185000X0*%
%ADD26R,0.800000X0.400000*%
%ADD27R,1.450000X1.450000*%
%ADD28R,0.400000X0.800000*%
%ADD29R,0.700000X0.700000*%
%ADD30Outline5P,-0.725000X0.725000X0.217500X0.725000X0.725000X0.217500X0.725000X-0.725000X-0.725000X-0.725000X180.000000*%
%ADD31RoundRect,0.150000X-0.150000X-0.275000X0.150000X-0.275000X0.150000X0.275000X-0.150000X0.275000X0*%
%ADD32RoundRect,0.175000X-0.175000X-0.225000X0.175000X-0.225000X0.175000X0.225000X-0.175000X0.225000X0*%
%ADD33RoundRect,0.150000X0.275000X-0.150000X0.275000X0.150000X-0.275000X0.150000X-0.275000X-0.150000X0*%
%ADD34RoundRect,0.175000X0.225000X-0.175000X0.225000X0.175000X-0.225000X0.175000X-0.225000X-0.175000X0*%
%ADD35RoundRect,0.250000X0.350000X-0.450000X0.350000X0.450000X-0.350000X0.450000X-0.350000X-0.450000X0*%
%ADD36RoundRect,0.250000X1.000000X-1.025000X1.000000X1.025000X-1.000000X1.025000X-1.000000X-1.025000X0*%
%ADD37RoundRect,0.250000X-0.275000X-0.750000X0.275000X-0.750000X0.275000X0.750000X-0.275000X0.750000X0*%
%ADD38RoundRect,0.135000X-0.185000X0.135000X-0.185000X-0.135000X0.185000X-0.135000X0.185000X0.135000X0*%
%ADD39RoundRect,0.150000X-0.150000X0.512500X-0.150000X-0.512500X0.150000X-0.512500X0.150000X0.512500X0*%
%ADD40R,0.300000X1.300000*%
%ADD41R,1.800000X2.200000*%
%ADD42RoundRect,0.250000X-1.025000X-1.000000X1.025000X-1.000000X1.025000X1.000000X-1.025000X1.000000X0*%
%ADD43RoundRect,0.250000X0.275000X0.750000X-0.275000X0.750000X-0.275000X-0.750000X0.275000X-0.750000X0*%
%ADD44RoundRect,0.050000X0.387500X0.050000X-0.387500X0.050000X-0.387500X-0.050000X0.387500X-0.050000X0*%
%ADD45RoundRect,0.050000X0.050000X0.387500X-0.050000X0.387500X-0.050000X-0.387500X0.050000X-0.387500X0*%
%ADD46RoundRect,0.144000X1.456000X1.456000X-1.456000X1.456000X-1.456000X-1.456000X1.456000X-1.456000X0*%
%ADD47RoundRect,0.135000X-0.135000X-0.185000X0.135000X-0.185000X0.135000X0.185000X-0.135000X0.185000X0*%
%ADD48RoundRect,0.135000X0.185000X-0.135000X0.185000X0.135000X-0.185000X0.135000X-0.185000X-0.135000X0*%
G04 APERTURE END LIST*
D10*
%TO.C,S41*%
X155406252Y-102601250D03*
D11*
X155406252Y-87361251D03*
D10*
X131593750Y-102601250D03*
D11*
X131593750Y-87361252D03*
%TD*%
D12*
%TO.C,C20*%
X97897501Y-91803753D03*
X97897501Y-90843753D03*
%TD*%
D13*
%TO.C,MX4*%
X100955000Y-33703750D03*
D11*
X95875000Y-33703750D03*
D13*
X90795000Y-33703750D03*
D14*
X92065000Y-31163750D03*
D15*
X88515000Y-31163750D03*
X101965000Y-28623750D03*
D14*
X98415000Y-28623750D03*
%TD*%
D13*
%TO.C,MX42*%
X177155000Y-95616250D03*
D11*
X172075000Y-95616250D03*
D13*
X166995000Y-95616250D03*
D14*
X168265000Y-93076250D03*
D15*
X164715000Y-93076250D03*
X178165000Y-90536250D03*
D14*
X174615000Y-90536250D03*
%TD*%
D16*
%TO.C,D2*%
X63490000Y-39639998D03*
X63490000Y-36340002D03*
%TD*%
%TO.C,D21*%
X215890000Y-58689998D03*
X215890000Y-55390002D03*
%TD*%
D17*
%TO.C,C12*%
X229492503Y-87748754D03*
X230452503Y-87748754D03*
%TD*%
D13*
%TO.C,MX13*%
X62855000Y-52753750D03*
D11*
X57775000Y-52753750D03*
D13*
X52695000Y-52753750D03*
D14*
X53965000Y-50213750D03*
D15*
X50415000Y-50213750D03*
X63865000Y-47673750D03*
D14*
X60315000Y-47673750D03*
%TD*%
D13*
%TO.C,MX11*%
X234305000Y-33703750D03*
D11*
X229225000Y-33703750D03*
D13*
X224145000Y-33703750D03*
D14*
X225415000Y-31163750D03*
D15*
X221865000Y-31163750D03*
X235315000Y-28623750D03*
D14*
X231765000Y-28623750D03*
%TD*%
D16*
%TO.C,D22*%
X234940000Y-58689998D03*
X234940000Y-55390002D03*
%TD*%
D13*
%TO.C,MX26*%
X81905000Y-71803750D03*
D11*
X76825000Y-71803750D03*
D13*
X71745000Y-71803750D03*
D14*
X73015000Y-69263750D03*
D15*
X69465000Y-69263750D03*
X82915000Y-66723750D03*
D14*
X79365000Y-66723750D03*
%TD*%
D12*
%TO.C,C6*%
X230492501Y-89848755D03*
X230492501Y-88888755D03*
%TD*%
D18*
%TO.C,C18*%
X97887501Y-100023752D03*
X97887501Y-100983752D03*
%TD*%
D19*
%TO.C,C10*%
X224255002Y-94133754D03*
X223295002Y-94133754D03*
%TD*%
D16*
%TO.C,D28*%
X120640000Y-77739998D03*
X120640000Y-74440002D03*
%TD*%
D13*
%TO.C,MX39*%
X95875000Y-90536250D03*
D11*
X95875000Y-95616250D03*
D13*
X95875000Y-100696250D03*
D14*
X93335000Y-99426250D03*
D20*
X93335002Y-102976249D03*
X90795000Y-89526250D03*
D14*
X90794999Y-93076248D03*
%TD*%
D13*
%TO.C,MX41*%
X148580000Y-95616250D03*
D11*
X143500000Y-95616250D03*
D13*
X138420000Y-95616250D03*
D14*
X139690000Y-93076250D03*
D15*
X136140000Y-93076250D03*
X149590000Y-90536250D03*
D14*
X146040000Y-90536250D03*
%TD*%
D16*
%TO.C,D30*%
X158740000Y-77739998D03*
X158740000Y-74440002D03*
%TD*%
D13*
%TO.C,MX15*%
X100955000Y-52753750D03*
D11*
X95875000Y-52753750D03*
D13*
X90795000Y-52753750D03*
D14*
X92065000Y-50213750D03*
D15*
X88515000Y-50213750D03*
X101965000Y-47673750D03*
D14*
X98415000Y-47673750D03*
%TD*%
D19*
%TO.C,C15*%
X224272503Y-96341253D03*
X223312503Y-96341253D03*
%TD*%
D13*
%TO.C,MX14*%
X81905000Y-52753750D03*
D11*
X76825000Y-52753750D03*
D13*
X71745000Y-52753750D03*
D14*
X73015000Y-50213750D03*
D15*
X69465000Y-50213750D03*
X82915000Y-47673750D03*
D14*
X79365000Y-47673750D03*
%TD*%
D13*
%TO.C,MX34*%
X234305000Y-71803750D03*
D11*
X229225000Y-71803750D03*
D13*
X224145000Y-71803750D03*
D14*
X225415000Y-69263750D03*
D15*
X221865000Y-69263750D03*
X235315000Y-66723750D03*
D14*
X231765000Y-66723750D03*
%TD*%
D16*
%TO.C,D34*%
X223986250Y-77739998D03*
X223986250Y-74440002D03*
%TD*%
D13*
%TO.C,MX24*%
X43805000Y-71803750D03*
D11*
X38725000Y-71803750D03*
D13*
X33645000Y-71803750D03*
D14*
X34915000Y-69263750D03*
D15*
X31365000Y-69263750D03*
X44815000Y-66723750D03*
D14*
X41265000Y-66723750D03*
%TD*%
D13*
%TO.C,MX22*%
X234305000Y-52753750D03*
D11*
X229225000Y-52753750D03*
D13*
X224145000Y-52753750D03*
D14*
X225415000Y-50213750D03*
D15*
X221865000Y-50213750D03*
X235315000Y-47673750D03*
D14*
X231765000Y-47673750D03*
%TD*%
D16*
%TO.C,D19*%
X177790000Y-58689998D03*
X177790000Y-55390002D03*
%TD*%
D13*
%TO.C,MX31*%
X177155000Y-71803750D03*
D11*
X172075000Y-71803750D03*
D13*
X166995000Y-71803750D03*
D14*
X168265000Y-69263750D03*
D15*
X164715000Y-69263750D03*
X178165000Y-66723750D03*
D14*
X174615000Y-66723750D03*
%TD*%
D16*
%TO.C,D9*%
X196840000Y-39639998D03*
X196840000Y-36340002D03*
%TD*%
D13*
%TO.C,MX1*%
X43805000Y-33703750D03*
D11*
X38725000Y-33703750D03*
D13*
X33645000Y-33703750D03*
D14*
X34915000Y-31163750D03*
D15*
X31365001Y-31163752D03*
X44815000Y-28623750D03*
D14*
X41265003Y-28623750D03*
%TD*%
D21*
%TO.C,D41*%
X146289999Y-87202499D03*
X149590001Y-87202499D03*
%TD*%
%TO.C,D43*%
X193915004Y-87202500D03*
X197215000Y-87202500D03*
%TD*%
D13*
%TO.C,MX10*%
X215255000Y-33703750D03*
D11*
X210175000Y-33703750D03*
D13*
X205095000Y-33703750D03*
D14*
X206365000Y-31163750D03*
D15*
X202815000Y-31163750D03*
X216265000Y-28623750D03*
D14*
X212715000Y-28623750D03*
%TD*%
D12*
%TO.C,C8*%
X226353751Y-90848754D03*
X226353751Y-89888754D03*
%TD*%
D22*
%TO.C,D40*%
X123505000Y-98406254D03*
X123505000Y-101706250D03*
%TD*%
D16*
%TO.C,D35*%
X253990000Y-77739998D03*
X253990000Y-74440002D03*
%TD*%
%TO.C,D26*%
X82540000Y-77739998D03*
X82540000Y-74440002D03*
%TD*%
D23*
%TO.C,U1*%
X236360002Y-87023754D03*
X235090003Y-87023753D03*
X233820004Y-87023754D03*
X232550003Y-87023754D03*
X232550004Y-79848754D03*
X233820003Y-79848755D03*
X235090002Y-79848754D03*
X236360003Y-79848754D03*
%TD*%
D12*
%TO.C,C16*%
X220900004Y-82271254D03*
X220900004Y-81311254D03*
%TD*%
D24*
%TO.C,D36*%
X48114996Y-86726250D03*
X44815000Y-86726250D03*
%TD*%
D21*
%TO.C,D42*%
X174865000Y-87202502D03*
X178165000Y-87202500D03*
%TD*%
D16*
%TO.C,D3*%
X82540000Y-39639998D03*
X82540000Y-36340002D03*
%TD*%
D17*
%TO.C,C14*%
X237230000Y-97088750D03*
X238190000Y-97088750D03*
%TD*%
D16*
%TO.C,D31*%
X177790000Y-77739998D03*
X177790000Y-74440002D03*
%TD*%
D13*
%TO.C,MX30*%
X158105000Y-71803750D03*
D11*
X153025000Y-71803750D03*
D13*
X147945000Y-71803750D03*
D14*
X149215000Y-69263750D03*
D15*
X145665000Y-69263750D03*
X159115000Y-66723750D03*
D14*
X155565000Y-66723750D03*
%TD*%
D13*
%TO.C,MX44*%
X215255000Y-95616250D03*
D11*
X210175000Y-95616250D03*
D13*
X205095000Y-95616250D03*
D14*
X206365000Y-93076250D03*
D15*
X202815000Y-93076250D03*
X216265000Y-90536250D03*
D14*
X212715000Y-90536250D03*
%TD*%
D16*
%TO.C,D11*%
X234940000Y-39639998D03*
X234940000Y-36340002D03*
%TD*%
D25*
%TO.C,R9*%
X120833750Y-84306251D03*
X119813750Y-84306249D03*
%TD*%
D26*
%TO.C,U4*%
X99523751Y-97906248D03*
X99523750Y-97106250D03*
X99523750Y-96306250D03*
X99523750Y-95506250D03*
X99523750Y-94706250D03*
X99523750Y-93906250D03*
X99523750Y-93106250D03*
X99523750Y-92306250D03*
X99523750Y-91506250D03*
D27*
X105423751Y-91931249D03*
D26*
X99523750Y-90706250D03*
X99523750Y-89956253D03*
D28*
X100623749Y-89006249D03*
X101423748Y-89006248D03*
X102223750Y-89006250D03*
X103023750Y-89006252D03*
X103823750Y-89006251D03*
X104623749Y-89006252D03*
X105423751Y-89006250D03*
X106223750Y-89006250D03*
X107023750Y-89006251D03*
X107823750Y-89006249D03*
X108623750Y-89006247D03*
X109423752Y-89006248D03*
X110223751Y-89006250D03*
D26*
X111323749Y-89906252D03*
X111323750Y-90706250D03*
X111323750Y-91506250D03*
X111323750Y-92306250D03*
X111323750Y-93106250D03*
X111323750Y-93906250D03*
X111323750Y-94706250D03*
X111323750Y-95506250D03*
X111323750Y-96306250D03*
X111323750Y-97106250D03*
X111323750Y-97856247D03*
D28*
X110223751Y-98806251D03*
X110223751Y-98806251D03*
X109423752Y-98806252D03*
X108623750Y-98806250D03*
X107823750Y-98806248D03*
X107023750Y-98806249D03*
X106223751Y-98806248D03*
X105423749Y-98806250D03*
X104623750Y-98806250D03*
X103823750Y-98806249D03*
X103023750Y-98806251D03*
X102223750Y-98806253D03*
X101423748Y-98806252D03*
X100623749Y-98806250D03*
D27*
X105423750Y-93906250D03*
D29*
X111373749Y-98856249D03*
X111373749Y-88956249D03*
X99473751Y-88956251D03*
X99473751Y-98856251D03*
D30*
X103473753Y-95881254D03*
D27*
X105423749Y-95881251D03*
X107398750Y-95881250D03*
X103448749Y-93906249D03*
X107398751Y-93906251D03*
X103448750Y-91931250D03*
X107398750Y-91931250D03*
%TD*%
D16*
%TO.C,D17*%
X128260000Y-58689998D03*
X128260000Y-55390002D03*
%TD*%
D25*
%TO.C,R1*%
X237380003Y-89436254D03*
X236360003Y-89436256D03*
%TD*%
D19*
%TO.C,C4*%
X225722506Y-101241251D03*
X224762506Y-101241251D03*
%TD*%
D13*
%TO.C,MX23*%
X253355000Y-52753750D03*
D11*
X248275000Y-52753750D03*
D13*
X243195000Y-52753750D03*
D14*
X244465000Y-50213750D03*
D15*
X240915000Y-50213750D03*
X254365000Y-47673750D03*
D14*
X250815000Y-47673750D03*
%TD*%
D31*
%TO.C,J1*%
X141700000Y-63677500D03*
X142900000Y-63677500D03*
X144100000Y-63677500D03*
X145300000Y-63677500D03*
D32*
X140550000Y-59902500D03*
X146450000Y-59902500D03*
%TD*%
D19*
%TO.C,C7*%
X225722501Y-102241252D03*
X224762501Y-102241252D03*
%TD*%
D24*
%TO.C,D39*%
X94094996Y-86736250D03*
X90795000Y-86736250D03*
%TD*%
D16*
%TO.C,D7*%
X158740000Y-39639998D03*
X158740000Y-36340002D03*
%TD*%
D24*
%TO.C,D37*%
X67164996Y-86726250D03*
X63865000Y-86726250D03*
%TD*%
D33*
%TO.C,J2*%
X75265000Y-85467497D03*
X75265000Y-84267496D03*
X75264998Y-83067499D03*
X75265000Y-81867498D03*
D34*
X71490000Y-86617498D03*
X71490000Y-80717498D03*
%TD*%
D16*
%TO.C,D6*%
X139690000Y-39639998D03*
X139690000Y-36340002D03*
%TD*%
D35*
%TO.C,Y1*%
X230998753Y-103741254D03*
X230998752Y-101541253D03*
X232698749Y-101541252D03*
X232698750Y-103741253D03*
%TD*%
D16*
%TO.C,D13*%
X63490000Y-58689998D03*
X63490000Y-55390002D03*
%TD*%
D13*
%TO.C,MX40*%
X114925000Y-100696250D03*
D11*
X114925000Y-95616250D03*
D13*
X114925000Y-90536250D03*
D14*
X117465000Y-91806250D03*
D36*
X117465000Y-88256248D03*
X120005000Y-101706250D03*
D14*
X120004998Y-98156250D03*
%TD*%
D12*
%TO.C,C11*%
X225353751Y-90848756D03*
X225353751Y-89888756D03*
%TD*%
D13*
%TO.C,MX8*%
X177155000Y-33703750D03*
D11*
X172075000Y-33703750D03*
D13*
X166995000Y-33703750D03*
D14*
X168265000Y-31163750D03*
D15*
X164715000Y-31163750D03*
X178165000Y-28623750D03*
D14*
X174615000Y-28623750D03*
%TD*%
D19*
%TO.C,C9*%
X224255001Y-93141254D03*
X223295001Y-93141254D03*
%TD*%
D13*
%TO.C,MX3*%
X81905000Y-33703750D03*
D11*
X76825000Y-33703750D03*
D13*
X71745000Y-33703750D03*
D14*
X73015000Y-31163750D03*
D15*
X69465000Y-31163750D03*
X82915000Y-28623750D03*
D14*
X79365000Y-28623750D03*
%TD*%
D37*
%TO.C,SW_ESP_RESET1*%
X98498750Y-82406250D03*
X102948750Y-82406250D03*
%TD*%
D16*
%TO.C,D20*%
X196840000Y-58689998D03*
X196840000Y-55390002D03*
%TD*%
D25*
%TO.C,R11*%
X97897501Y-92803753D03*
X96877501Y-92803751D03*
%TD*%
D37*
%TO.C,SW_ESP_BOOTSEL1*%
X107798750Y-82406250D03*
X112248750Y-82406250D03*
%TD*%
D12*
%TO.C,C5*%
X227367502Y-90848752D03*
X227367502Y-89888752D03*
%TD*%
D38*
%TO.C,R3*%
X235698751Y-101831254D03*
X235698753Y-102851254D03*
%TD*%
D39*
%TO.C,U2*%
X223200004Y-84611254D03*
X224150004Y-84611254D03*
X225100004Y-84611254D03*
X225100004Y-86886254D03*
X223200004Y-86886254D03*
%TD*%
D17*
%TO.C,C17*%
X222240004Y-88448754D03*
X223200004Y-88448754D03*
%TD*%
D16*
%TO.C,D29*%
X139690000Y-77739998D03*
X139690000Y-74440002D03*
%TD*%
D13*
%TO.C,MX21*%
X215255000Y-52753750D03*
D11*
X210175000Y-52753750D03*
D13*
X205095000Y-52753750D03*
D14*
X206365000Y-50213750D03*
D15*
X202815000Y-50213750D03*
X216265000Y-47673750D03*
D14*
X212715000Y-47673750D03*
%TD*%
D13*
%TO.C,MX43*%
X196205000Y-95616250D03*
D11*
X191125000Y-95616250D03*
D13*
X186045000Y-95616250D03*
D14*
X187315000Y-93076250D03*
D15*
X183765000Y-93076250D03*
X197215000Y-90536250D03*
D14*
X193665000Y-90536250D03*
%TD*%
D16*
%TO.C,D15*%
X101590000Y-58689998D03*
X101590000Y-55390002D03*
%TD*%
D38*
%TO.C,R5*%
X227892501Y-85358752D03*
X227892503Y-86378752D03*
%TD*%
D40*
%TO.C,J3*%
X244410003Y-89798754D03*
X244910003Y-89798754D03*
X245410003Y-89798754D03*
X245910003Y-89798754D03*
X246410003Y-89798754D03*
X246910003Y-89798754D03*
D41*
X242510003Y-86548754D03*
X248810003Y-86548754D03*
%TD*%
D13*
%TO.C,MX12*%
X43805000Y-52753750D03*
D11*
X38725000Y-52753750D03*
D13*
X33645000Y-52753750D03*
D14*
X34915000Y-50213750D03*
D15*
X31365000Y-50213750D03*
X44815000Y-47673750D03*
D14*
X41265000Y-47673750D03*
%TD*%
D13*
%TO.C,MX2*%
X62855000Y-33703750D03*
D11*
X57775000Y-33703750D03*
D13*
X52695000Y-33703750D03*
D14*
X53965000Y-31163750D03*
D15*
X50415000Y-31163750D03*
X63865000Y-28623750D03*
D14*
X60315000Y-28623750D03*
%TD*%
D16*
%TO.C,D45*%
X238965004Y-104054971D03*
X238965004Y-100754975D03*
%TD*%
D13*
%TO.C,MX45*%
X243147275Y-95674975D03*
D11*
X248227275Y-95674975D03*
D13*
X253307275Y-95674975D03*
D14*
X252037275Y-98214975D03*
D42*
X255587274Y-98214973D03*
X242137275Y-100754975D03*
D14*
X245687272Y-100754975D03*
%TD*%
D43*
%TO.C,SW_RP_RESET1*%
X256115000Y-89139998D03*
X251665000Y-89139998D03*
%TD*%
D19*
%TO.C,C19*%
X97887501Y-98903752D03*
X96927501Y-98903752D03*
%TD*%
D16*
%TO.C,D1*%
X44440000Y-39639998D03*
X44440000Y-36340002D03*
%TD*%
D13*
%TO.C,MX27*%
X100955000Y-71803750D03*
D11*
X95875000Y-71803750D03*
D13*
X90795000Y-71803750D03*
D14*
X92065000Y-69263750D03*
D15*
X88515000Y-69263750D03*
X101965000Y-66723750D03*
D14*
X98415000Y-66723750D03*
%TD*%
D13*
%TO.C,MX33*%
X215255000Y-71803750D03*
D11*
X210175000Y-71803750D03*
D13*
X205095000Y-71803750D03*
D14*
X206365000Y-69263750D03*
D15*
X202815000Y-69263750D03*
X216265000Y-66723750D03*
D14*
X212715000Y-66723750D03*
%TD*%
D13*
%TO.C,MX19*%
X177155000Y-52753750D03*
D11*
X172075000Y-52753750D03*
D13*
X166995000Y-52753750D03*
D14*
X168265000Y-50213750D03*
D15*
X164715000Y-50213750D03*
X178165000Y-47673750D03*
D14*
X174615000Y-47673750D03*
%TD*%
D44*
%TO.C,U3*%
X233130004Y-93141251D03*
X233130001Y-93541252D03*
X233130001Y-93941252D03*
X233130002Y-94341252D03*
X233130001Y-94741252D03*
X233130001Y-95141252D03*
X233130001Y-95541251D03*
X233130002Y-95941254D03*
X233130002Y-96341252D03*
X233130001Y-96741252D03*
X233130000Y-97141252D03*
X233130002Y-97541251D03*
X233130001Y-97941254D03*
X233130001Y-98341252D03*
D45*
X232292502Y-99178755D03*
X231892501Y-99178752D03*
X231492501Y-99178752D03*
X231092501Y-99178753D03*
X230692501Y-99178752D03*
X230292501Y-99178752D03*
X229892502Y-99178752D03*
X229492499Y-99178753D03*
X229092501Y-99178753D03*
X228692501Y-99178752D03*
X228292501Y-99178751D03*
X227892502Y-99178753D03*
X227492499Y-99178752D03*
X227092501Y-99178752D03*
D44*
X226254998Y-98341253D03*
X226255001Y-97941252D03*
X226255001Y-97541252D03*
X226255000Y-97141252D03*
X226255001Y-96741252D03*
X226255001Y-96341252D03*
X226255001Y-95941253D03*
X226255000Y-95541250D03*
X226255000Y-95141252D03*
X226255001Y-94741252D03*
X226255002Y-94341252D03*
X226255000Y-93941253D03*
X226255001Y-93541250D03*
X226255001Y-93141252D03*
D45*
X227092500Y-92303749D03*
X227492501Y-92303752D03*
X227892501Y-92303752D03*
X228292501Y-92303751D03*
X228692501Y-92303752D03*
X229092501Y-92303752D03*
X229492500Y-92303752D03*
X229892503Y-92303751D03*
X230292501Y-92303751D03*
X230692501Y-92303752D03*
X231092501Y-92303753D03*
X231492500Y-92303751D03*
X231892503Y-92303752D03*
X232292501Y-92303752D03*
D46*
X229692501Y-95741252D03*
%TD*%
D16*
%TO.C,D25*%
X63490000Y-77739998D03*
X63490000Y-74440002D03*
%TD*%
D38*
%TO.C,R4*%
X229092500Y-85358754D03*
X229092502Y-86378754D03*
%TD*%
D19*
%TO.C,C1*%
X236360003Y-77548754D03*
X235400003Y-77548754D03*
%TD*%
D13*
%TO.C,MX16*%
X120005000Y-52753750D03*
D11*
X114925000Y-52753750D03*
D13*
X109845000Y-52753750D03*
D14*
X111115000Y-50213750D03*
D15*
X107565000Y-50213750D03*
X121015000Y-47673750D03*
D14*
X117465000Y-47673750D03*
%TD*%
D13*
%TO.C,MX32*%
X196205000Y-71803750D03*
D11*
X191125000Y-71803750D03*
D13*
X186045000Y-71803750D03*
D14*
X187315000Y-69263750D03*
D15*
X183765000Y-69263750D03*
X197215000Y-66723750D03*
D14*
X193665000Y-66723750D03*
%TD*%
D16*
%TO.C,D16*%
X120640000Y-58689998D03*
X120640000Y-55390002D03*
%TD*%
%TO.C,D10*%
X215890000Y-39639998D03*
X215890000Y-36340002D03*
%TD*%
D13*
%TO.C,MX7*%
X158105000Y-33703750D03*
D11*
X153025000Y-33703750D03*
D13*
X147945000Y-33703750D03*
D14*
X149215000Y-31163750D03*
D15*
X145665000Y-31163750D03*
X159115000Y-28623750D03*
D14*
X155565000Y-28623750D03*
%TD*%
D47*
%TO.C,R7*%
X96891251Y-88593752D03*
X97911251Y-88593754D03*
%TD*%
D13*
%TO.C,MX37*%
X62855000Y-95616250D03*
D11*
X57775000Y-95616250D03*
D13*
X52695000Y-95616250D03*
D14*
X53965000Y-93076250D03*
D15*
X50415000Y-93076250D03*
X63865000Y-90536250D03*
D14*
X60315000Y-90536250D03*
%TD*%
D13*
%TO.C,MX38*%
X81905000Y-95616250D03*
D11*
X76825000Y-95616250D03*
D13*
X71745000Y-95616250D03*
D14*
X73015000Y-93076250D03*
D15*
X69465000Y-93076250D03*
X82915000Y-90536250D03*
D14*
X79365000Y-90536250D03*
%TD*%
D13*
%TO.C,MX35*%
X253355000Y-71803750D03*
D11*
X248275000Y-71803750D03*
D13*
X243195000Y-71803750D03*
D14*
X244465000Y-69263750D03*
D15*
X240915000Y-69263750D03*
X254365000Y-66723750D03*
D14*
X250815000Y-66723750D03*
%TD*%
D16*
%TO.C,D27*%
X101590000Y-77739998D03*
X101590000Y-74440002D03*
%TD*%
D38*
%TO.C,R6*%
X108523752Y-86686247D03*
X108523750Y-87706247D03*
%TD*%
D16*
%TO.C,D8*%
X177790000Y-39639998D03*
X177790000Y-36340002D03*
%TD*%
D25*
%TO.C,R8*%
X120833750Y-85306249D03*
X119813750Y-85306251D03*
%TD*%
D13*
%TO.C,MX18*%
X158105000Y-52753750D03*
D11*
X153025000Y-52753750D03*
D13*
X147945000Y-52753750D03*
D14*
X149215000Y-50213750D03*
D15*
X145665000Y-50213750D03*
X159115000Y-47673750D03*
D14*
X155565000Y-47673750D03*
%TD*%
D48*
%TO.C,R2*%
X227542502Y-104031254D03*
X227542500Y-103011254D03*
%TD*%
D13*
%TO.C,MX17*%
X139055000Y-52753750D03*
D11*
X133975000Y-52753750D03*
D13*
X128895000Y-52753750D03*
D14*
X130165000Y-50213750D03*
D15*
X126615000Y-50213750D03*
X140065000Y-47673750D03*
D14*
X136515000Y-47673750D03*
%TD*%
D40*
%TO.C,J4*%
X85100000Y-62700000D03*
X85600000Y-62700000D03*
X86100000Y-62700000D03*
X86600000Y-62700000D03*
X87100000Y-62700000D03*
X87600000Y-62700000D03*
D41*
X83200000Y-59450000D03*
X89500000Y-59450000D03*
%TD*%
D13*
%TO.C,MX25*%
X62855000Y-71803750D03*
D11*
X57775000Y-71803750D03*
D13*
X52695000Y-71803750D03*
D14*
X53965000Y-69263750D03*
D15*
X50415000Y-69263750D03*
X63865000Y-66723750D03*
D14*
X60315000Y-66723750D03*
%TD*%
D16*
%TO.C,D14*%
X71110000Y-58689998D03*
X71110000Y-55390002D03*
%TD*%
%TO.C,D33*%
X215890000Y-77739998D03*
X215890000Y-74440002D03*
%TD*%
D13*
%TO.C,MX28*%
X120005000Y-71803750D03*
D11*
X114925000Y-71803750D03*
D13*
X109845000Y-71803750D03*
D14*
X111115000Y-69263750D03*
D15*
X107565000Y-69263750D03*
X121015000Y-66723750D03*
D14*
X117465000Y-66723750D03*
%TD*%
D13*
%TO.C,MX6*%
X139055000Y-33703750D03*
D11*
X133975000Y-33703750D03*
D13*
X128895000Y-33703750D03*
D14*
X130165000Y-31163750D03*
D15*
X126615000Y-31163750D03*
X140065000Y-28623750D03*
D14*
X136515000Y-28623750D03*
%TD*%
D13*
%TO.C,MX5*%
X120005000Y-33703750D03*
D11*
X114925000Y-33703750D03*
D13*
X109845000Y-33703750D03*
D14*
X111115000Y-31163750D03*
D15*
X107565000Y-31163750D03*
X121015000Y-28623750D03*
D14*
X117465000Y-28623750D03*
%TD*%
D43*
%TO.C,SW_RP_BOOTSEL1*%
X256115000Y-82539998D03*
X251665000Y-82539998D03*
%TD*%
D13*
%TO.C,MX9*%
X196205000Y-33703750D03*
D11*
X191125000Y-33703750D03*
D13*
X186045000Y-33703750D03*
D14*
X187315000Y-31163750D03*
D15*
X183765000Y-31163750D03*
X197215000Y-28623750D03*
D14*
X193665000Y-28623750D03*
%TD*%
D21*
%TO.C,D44*%
X212965004Y-87202502D03*
X216265004Y-87202500D03*
%TD*%
D17*
%TO.C,C3*%
X224762505Y-103241252D03*
X225722505Y-103241252D03*
%TD*%
D16*
%TO.C,D4*%
X101590000Y-39639998D03*
X101590000Y-36340002D03*
%TD*%
%TO.C,D18*%
X158740000Y-58689998D03*
X158740000Y-55390002D03*
%TD*%
%TO.C,D24*%
X44440000Y-77739998D03*
X44440000Y-74440002D03*
%TD*%
D12*
%TO.C,C2*%
X234598751Y-102791254D03*
X234598751Y-101831254D03*
%TD*%
D24*
%TO.C,D38*%
X86215000Y-86726250D03*
X82915000Y-86726248D03*
%TD*%
D13*
%TO.C,MX36*%
X43805000Y-95616250D03*
D11*
X38725000Y-95616250D03*
D13*
X33645000Y-95616250D03*
D14*
X34915000Y-93076250D03*
D15*
X31365000Y-93076250D03*
X44815000Y-90536250D03*
D14*
X41265000Y-90536250D03*
%TD*%
D13*
%TO.C,MX20*%
X196205000Y-52753750D03*
D11*
X191125000Y-52753750D03*
D13*
X186045000Y-52753750D03*
D14*
X187315000Y-50213750D03*
D15*
X183765000Y-50213750D03*
X197215000Y-47673750D03*
D14*
X193665000Y-47673750D03*
%TD*%
D16*
%TO.C,D32*%
X196840000Y-77739998D03*
X196840000Y-74440002D03*
%TD*%
%TO.C,D23*%
X253990000Y-58689998D03*
X253990000Y-55390002D03*
%TD*%
%TO.C,D5*%
X120640000Y-39639998D03*
X120640000Y-36340002D03*
%TD*%
%TO.C,D12*%
X44440000Y-58689998D03*
X44440000Y-55390002D03*
%TD*%
D38*
%TO.C,R10*%
X109523750Y-86686247D03*
X109523750Y-87706247D03*
%TD*%
D13*
%TO.C,MX29*%
X139055000Y-71803750D03*
D11*
X133975000Y-71803750D03*
D13*
X128895000Y-71803750D03*
D14*
X130165000Y-69263750D03*
D15*
X126615000Y-69263750D03*
X140065000Y-66723750D03*
D14*
X136515000Y-66723750D03*
%TD*%
D12*
%TO.C,C13*%
X234760006Y-91640003D03*
X234760006Y-90680003D03*
%TD*%
M02*
